<?xml version="1.0" standalone="no"?>
<!DOCTYPE svg PUBLIC "-//W3C//DTD SVG 1.1//EN" "http://www.w3.org/Graphics/SVG/1.1/DTD/svg11.dtd" >
<svg xmlns="http://www.w3.org/2000/svg" xmlns:xlink="http://www.w3.org/1999/xlink" version="1.1">
<metadata>
Created by FontForge 20170731 at Thu Dec  1 18:24:57 2022
 By Aleksey,,,
</metadata>
<defs>
<font id="AnnieUseYourTelescope" horiz-adv-x="346" >
  <font-face 
    font-family="Annie Use Your Telescope"
    font-weight="400"
    font-stretch="normal"
    units-per-em="1024"
    panose-1="2 0 0 0 0 0 0 0 0 0"
    ascent="819"
    descent="-205"
    x-height="412"
    cap-height="730"
    bbox="-224 -419 1053 975"
    underline-thickness="0"
    underline-position="0"
    unicode-range="U+0020-203A"
  />
<missing-glyph horiz-adv-x="374" 
d="M34 0v682h272v-682h-272zM68 34h204v614h-204v-614z" />
    <glyph glyph-name=".notdef" horiz-adv-x="374" 
d="M34 0v682h272v-682h-272zM68 34h204v614h-204v-614z" />
    <glyph glyph-name=".null" horiz-adv-x="0" 
 />
    <glyph glyph-name="nonmarkingreturn" horiz-adv-x="341" 
 />
    <glyph glyph-name="space" unicode=" " horiz-adv-x="384" 
 />
    <glyph glyph-name="exclam" unicode="!" horiz-adv-x="158" 
d="M101 -2q-24 15 -33 32t-8 32t12 27t23 13t29 -7t27 -37q0 -10 -3 -20t-10 -19t-16 -15t-21 -6zM110 58q-4 0 -6 -3t-2 -7t2 -8t6 -2q9 2 9 9t-9 11zM13 650q0 9 1 12t6 4t13 1t20 5l57 -461q-2 -1 -9 -3t-10 -2q-12 0 -19 4t-10 13t-5 20t-4 25q-1 5 -3 26t-6 52t-8 68
t-8 75t-8 70t-6 55v5l-1 12v12v7z" />
    <glyph glyph-name="quotedbl" unicode="&#x22;" horiz-adv-x="216" 
d="M133 633v19t3 20t11 17t20 7q0 -6 1 -20t1 -31t2 -30t1 -20q0 -2 3 -10t7 -18t7 -18t3 -11t-2 -6t-6 -6t-6 -5t-6 -3q-13 17 -21 30t-12 27t-5 26t-1 32zM19 604q0 13 1 32t8 36t18 30t30 13v-170q-27 0 -42 16t-15 43z" />
    <glyph glyph-name="numbersign" unicode="#" horiz-adv-x="552" 
d="M217 167q-9 -26 -10 -48t-1 -40t4 -30t-2 -18t-16 -5t-38 12v116h-125q6 12 24 22t39 18t36 12t17 5q4 21 4 42t-1 39t0 33t7 21h-145v18l183 39v179q6 -2 11 -2q4 -2 8 -2t9 -2q2 -1 5 -3t7 -6t5 -7t3 -4v-134h86v154h28l18 -130l156 -4q-1 -2 -4 -7l-6 -10t-7 -10
t-5 -5q-8 -2 -26 -6t-40 -8t-40 -7t-26 -5v-116h154v-18q-9 -2 -31 -7t-47 -11t-46 -12t-30 -9q-4 -1 -9 -3t-9 -6t-8 -6t-3 -4v-173h-38v153h-8h-20l-25 -2l-24 -1l-15 -1zM317 379q-40 0 -61 -10t-31 -31t-10 -49t-1 -64h12t20 2t20 1t13 2q4 1 10 3t13 6t10 6t5 5v129z
" />
    <glyph glyph-name="dollar" unicode="$" horiz-adv-x="480" 
d="M266 25q-28 2 -66 4t-75 8t-69 22t-49 43l19 19q27 -26 53 -33t54 -6t56 7t65 6v9t1 13t1 13v10q0 10 -3 34t-6 52t-6 53t-4 34q-2 16 -17 20t-36 6t-46 1t-45 7t-35 23t-14 48q0 41 16 68t38 49t48 39t44 39t27 50t-2 70q19 12 24 12t6 -12t5 -37t16 -64q12 -6 33 -14
t43 -16t36 -18t15 -20q0 -13 -3 -23t-18 -17q-10 14 -21 21t-22 11t-25 3t-28 -1v-168q38 1 73 -8t61 -28t43 -51t16 -76q0 -26 -16 -57t-40 -58t-53 -46t-55 -22v-134h-39v115zM290 345q0 -63 4 -122t20 -121q2 -1 5 -1t5 -1q15 0 32 17t34 39t26 45t13 35q4 30 -9 50
t-35 34t-48 19t-47 6zM83 418q0 -11 5 -20t13 -15t18 -10t20 -3q18 0 32 1t26 6t17 16t6 30q0 19 -1 35t-4 33l-6 34t-10 38q-4 -3 -14 -11t-23 -20t-27 -26t-25 -29t-19 -30t-8 -29z" />
    <glyph glyph-name="percent" unicode="%" horiz-adv-x="350" 
d="M283 595h37l-271 -588l-35 12zM245 154q0 3 7 10t12 8q21 6 31 -3t13 -22t-3 -27t-14 -16t-21 6t-25 44zM52 509v16t4 16t9 11t17 5q18 0 24 -12t7 -28q0 -21 -8 -32t-33 -25q-9 3 -13 8t-5 12l-2 14t0 15z" />
    <glyph glyph-name="ampersand" unicode="&#x26;" horiz-adv-x="509" 
d="M418 117q-39 -57 -95 -87t-124 -30q-36 0 -66 7t-52 25t-35 45t-13 69q0 25 9 57t23 64t34 59t42 41q-28 96 -28 162t17 110t46 64t59 29q26 0 49 -10t40 -28t27 -40t10 -48q0 -38 -14 -75t-38 -70t-50 -62t-53 -52q-1 -2 -1 -9v-10q0 -27 15 -60t38 -62t51 -48t54 -19
q0 31 -1 59t-12 48t-35 32t-70 11v20q0 5 19 9t46 6t52 3t40 1h13h17t15 -5t9 -14l58 -461l-32 -32zM91 78q21 -26 55 -36t70 -7t71 20t54 42q-27 12 -57 38t-56 57t-48 57t-31 40q-27 -20 -39 -44t-17 -51t-4 -56t2 -60zM418 232v57h-39zM166 519v-30t2 -28t6 -28t13 -28
q18 14 42 35t44 46t35 54t15 56q0 12 -5 29t-14 32t-22 26t-26 11q-33 0 -51 -19t-27 -46t-10 -57t-2 -53z" />
    <glyph glyph-name="quotesingle" unicode="'" horiz-adv-x="91" 
d="M14 691q0 5 8 12t12 7q25 -16 32 -42t7 -55v-14v-17t-5 -16t-15 -10q-8 3 -15 22t-12 42t-9 44t-3 27z" />
    <glyph glyph-name="parenleft" unicode="(" horiz-adv-x="226" 
d="M4 241q0 30 3 71t12 89t21 95t33 93t45 81t60 60q2 1 9 3t9 3v-26q-27 -46 -48 -85t-36 -75t-25 -69t-16 -70t-8 -78t-2 -92q0 -38 6 -74t13 -72l14 -72t7 -73q0 -9 -3 -15t-16 -12q-15 35 -29 74t-25 81t-17 82t-7 81z" />
    <glyph glyph-name="parenright" unicode=")" horiz-adv-x="230" 
d="M81 -86q0 10 4 16t15 12q21 50 33 88t19 72t7 70t2 83q0 67 -6 130t-23 123t-47 115t-81 107q0 4 8 11t12 7q2 0 7 -2t12 -4t12 -6t7 -6q45 -51 72 -105t41 -113t19 -119t5 -126v-58t-1 -71t-7 -76t-16 -72t-29 -62t-46 -44q-11 6 -15 12t-4 18z" />
    <glyph glyph-name="asterisk" unicode="*" horiz-adv-x="235" 
d="M125 288q-3 -6 -9 -14t-16 -15t-19 -13t-20 -5q0 13 -1 32t-6 37t-15 33t-29 21q21 4 34 10t21 14t12 15t11 18t14 20t23 19q14 -4 19 -12t7 -17t1 -19t4 -16t14 -13t35 -5q0 -2 -1 -6l-2 -8q-1 -1 -4 -6t-6 -12t-6 -12t-3 -8q0 -2 3 -10t6 -18t7 -18t3 -12v-7v-11v-10
v-10z" />
    <glyph glyph-name="plus" unicode="+" horiz-adv-x="317" 
d="M7 319l118 7v120q19 6 31 4t20 -11t9 -22t3 -28t-1 -29t-4 -23h115v-30q-34 -3 -60 -7t-45 -18t-25 -39t-5 -71h-9l-19 -1l-19 -1l-9 -1q-1 21 3 36t9 28t4 20t-9 14t-33 7t-66 3z" />
    <glyph glyph-name="comma" unicode="," horiz-adv-x="120" 
d="M55 1q-1 3 -6 9t-11 13t-12 11t-10 6q6 12 12 16t16 4q28 0 40 -12t12 -37q0 -31 -13 -50t-48 -36q-1 2 -1 9v10v10t1 9q0 2 3 7t7 12t7 12t3 7z" />
    <glyph glyph-name="hyphen" unicode="-" horiz-adv-x="389" 
d="M34 230q0 1 22 4t58 8t79 8t89 8h16t24 1t24 1t17 1q0 -13 -5 -24t-18 -17q-24 -3 -60 -6t-74 -8t-74 -8t-60 -6h-9t-12 -1q-13 0 -22 2t-15 18z" />
    <glyph glyph-name="period" unicode="." horiz-adv-x="148" 
d="M32 38q-4 15 0 23t13 13t18 4t18 1h17t18 -5t12 -12t0 -24q-1 -7 -6 -13t-11 -13t-15 -10t-15 -4q-8 0 -16 4t-15 10t-11 12t-7 14z" />
    <glyph glyph-name="slash" unicode="/" horiz-adv-x="216" 
d="M158 538q2 6 5 13t7 10t11 -1t15 -22l-162 -549l-30 30z" />
    <glyph glyph-name="zero" unicode="0" horiz-adv-x="413" 
d="M35 249q0 19 1 45t6 54t13 55t23 49t34 35t48 14q57 0 100 -21t71 -58t42 -85t14 -101q0 -22 -4 -48t-13 -52t-22 -51t-32 -44t-42 -30t-53 -12q-54 0 -89 23t-57 60t-31 80t-9 87zM75 269q0 -39 2 -77t14 -68t38 -49t73 -19q40 0 68 14t45 39t25 58t8 72q-5 70 -29 117
t-57 71t-69 26t-65 -18t-45 -61t-8 -105z" />
    <glyph glyph-name="one" unicode="1" horiz-adv-x="388" 
d="M28 37q19 4 29 5t16 3t12 1t13 1t21 3t39 8q9 27 14 62t8 76t4 84t3 85t3 81t6 72h-4t-5 1q-21 0 -40 -9t-39 -19t-38 -20t-42 -9l-4 37q1 0 13 6t30 13t42 17t47 18t43 16t36 10v-503q9 -9 26 -10t37 -1t39 2t34 -2l-1 -41q-41 0 -81 -4t-79 -8t-79 -9t-79 -4
q-11 0 -14 12t-10 26z" />
    <glyph glyph-name="two" unicode="2" horiz-adv-x="484" 
d="M187 58q-27 -15 -49 -18t-50 -3q-11 0 -24 1t-25 7t-19 15t-8 27q0 10 20 14t50 9t66 17t66 35t51 68t21 111q0 29 -5 60t-18 58t-36 43t-61 18q-15 0 -27 -7t-22 -16t-19 -22t-19 -22t-23 -16t-31 -7q0 27 12 50t33 41t46 28t52 10q40 0 72 -20t55 -51t35 -68t12 -74
q0 -35 -10 -69t-26 -66t-37 -61t-43 -54q22 -19 51 -30t61 -17t61 -8t57 -3q1 -1 1 -4t1 -5q0 -11 -8 -17t-19 -10t-23 -3t-20 -1q-27 0 -51 5t-48 13t-49 19t-53 23zM130 76q2 5 -4 7t-15 2t-15 -2t-5 -7q3 -4 8 -6t12 -2t11 2t8 6z" />
    <glyph glyph-name="three" unicode="3" horiz-adv-x="413" 
d="M49 60q17 0 33 -3t33 -8t34 -8t35 -4q33 0 64 10t56 31t38 49t14 66q0 26 -12 47t-31 37t-44 23t-47 9h-10h-13t-10 -1t-6 -1q-2 0 -10 -3t-18 -6t-19 -7t-11 -3q-2 0 -5 2t-6 5l-6 6t-2 6q6 6 23 22t35 35t35 34t22 24q4 5 10 14t13 18t10 16t5 10q-6 32 -22 42t-39 7
t-48 -16t-50 -29t-44 -29t-33 -19q0 33 20 59t51 44t65 28t64 10q14 0 27 -8t24 -22t17 -28t7 -29q0 -16 -5 -33t-14 -34t-18 -32t-20 -27q26 -8 53 -22t50 -35t36 -47t14 -58q0 -43 -14 -80t-41 -65t-62 -43t-78 -16h-35t-50 5t-45 12t-20 23v22z" />
    <glyph glyph-name="four" unicode="4" horiz-adv-x="442" 
d="M235 384h-12t-12 1q-24 0 -49 -4t-49 -8t-49 -8t-51 -4q0 40 4 79t9 78t8 79t4 79q4 0 10 -2t11 -5t9 -8t4 -9v-225q1 0 13 -1t29 -3t36 -1t36 1t28 6t12 13v215q3 0 11 -2t17 -5t14 -8t6 -8v-183h150q-3 -11 -5 -21q-1 -8 -3 -16t-4 -11q-20 -6 -44 -7t-46 -2t-35 -1
t-16 1l3 -375h-39v365z" />
    <glyph glyph-name="five" unicode="5" horiz-adv-x="422" 
d="M58 76q36 -12 74 -25t79 -14q24 0 51 10t49 27t38 40t16 49q0 30 -15 54t-38 40t-51 26t-56 9q-22 0 -42 -8t-41 -17t-40 -15t-44 -2q-5 27 -9 48t-6 42t-3 40t-1 44q0 45 16 68t44 35t61 12t71 2h18t25 -1t22 -1t12 -1l12 -34q-26 -1 -57 -1t-62 -2t-59 -6t-46 -15v-173
q31 18 62 19t64 2q35 0 71 -10t65 -32t48 -51t19 -72q0 -30 -16 -59t-41 -52t-57 -38t-60 -15h-52t-59 6t-51 17t-31 36z" />
    <glyph glyph-name="six" unicode="6" horiz-adv-x="437" 
d="M13 203q3 31 12 79t23 99t35 97t45 75l40 -35q-18 -17 -34 -43t-29 -56t-22 -61t-17 -61t-10 -55t-4 -40q0 -5 3 -25t9 -43t15 -41t22 -18h4t5 1q11 32 25 63t33 56t46 41t64 16q24 0 49 -4t45 -14t33 -30t13 -50q0 -48 -20 -79t-54 -49t-77 -24t-90 -3q-40 0 -70 19
t-51 48t-32 65t-11 72zM289 214q-36 0 -59 -15t-36 -38t-18 -54t-6 -62q14 0 35 2t45 7t46 13t41 21t30 28t12 38q0 20 -9 32t-22 18t-30 8t-29 2z" />
    <glyph glyph-name="seven" unicode="7" horiz-adv-x="567" 
d="M340 190q-33 0 -59 -5t-60 -13l-12 39l128 39l2 13l5 35l8 48l8 55l8 54l7 44q1 3 0 7t-2 5q-12 0 -41 1t-63 3t-64 3t-42 0q-21 -1 -46 -3t-43 -13t-23 -31t10 -62l-3 -1l-8 -3l-7 -3l-4 -2q-13 0 -19 12t-9 30t-3 34v25v12v18t6 17t15 8h406q0 -39 -5 -76t-12 -75
t-11 -77t-5 -78h145v-20l-172 -38v-192q-25 -8 -34 10t-10 49t3 67t6 64z" />
    <glyph glyph-name="eight" unicode="8" horiz-adv-x="388" 
d="M94 118q0 22 6 42t14 40t14 38t7 41v4t-1 5q-5 4 -24 19t-39 37t-36 44t-16 43q0 33 13 57t36 40t50 23t57 8q9 0 24 -3t32 -11t33 -16t29 -21t16 -23t-2 -25l-77 -134l10 -8l25 -20l33 -28l33 -31l25 -30l11 -24q0 -37 -17 -71t-45 -60t-62 -41t-71 -15q-27 0 -42 10
t-24 26t-10 38t-2 46zM133 118v-36t4 -25t15 -15t32 -5t46 12t47 32t36 44t15 47q0 22 -9 40t-24 31t-34 20t-41 7q-27 0 -44 -15t-26 -39t-13 -49t-4 -49zM57 430q0 -12 11 -27t28 -27t35 -22t32 -9q16 0 32 16t28 37t20 43t8 30q0 18 -9 28t-23 15t-29 6t-27 1
q-18 0 -37 -5t-35 -17t-24 -29t-10 -40z" />
    <glyph glyph-name="nine" unicode="9" horiz-adv-x="360" 
d="M245 326q-19 -19 -35 -31t-33 -18t-35 -9t-41 -3q-18 0 -33 3t-28 10t-20 21t-7 34q0 34 11 64t31 53t49 37t64 14q13 0 36 -2t45 -10t38 -18t15 -29q7 -96 13 -195t7 -198v-10v-15v-15v-9q-24 -8 -34 7t-13 45t-1 67t1 77t-6 73t-24 57zM52 335q0 -10 5 -16t12 -9t16 -3
t17 -1q19 0 34 3t28 9t29 18t33 28v7v8t1 9t1 6q0 33 -19 51t-51 18q-23 0 -42 -12t-34 -30t-22 -42t-8 -44z" />
    <glyph glyph-name="colon" unicode=":" horiz-adv-x="157" 
d="M65 115q0 15 7 27t24 12t24 -12t7 -28q0 -17 -7 -27t-34 -11q-8 0 -12 4t-6 11t-2 13t-1 11zM27 355q0 9 4 15t13 8t24 -1t37 -13q-10 -15 -20 -27t-27 -12q-13 0 -22 9t-9 21z" />
    <glyph glyph-name="semicolon" unicode=";" horiz-adv-x="133" 
d="M82 -77q0 3 -3 14t-6 24t-7 24t-4 15q-1 2 -1 12v12q15 0 27 -9t19 -24t10 -30t4 -29q0 -12 -5 -24t-13 -22t-20 -18t-24 -7q0 2 1 11t2 12q1 2 4 7t6 12t7 12t3 8zM22 231q0 21 8 32t32 25q9 -2 13 -8t7 -13t2 -15t0 -14v-18t-5 -15t-12 -9t-24 -4q-8 0 -12 4t-6 11
t-2 13t-1 11z" />
    <glyph glyph-name="less" unicode="&#x3c;" horiz-adv-x="360" 
d="M32 163v5t2 4l211 288h23q0 -24 -10 -51t-27 -53t-38 -52t-40 -46t-36 -39t-26 -27v-38q9 -3 25 -10t38 -17t43 -20t44 -20t37 -18t24 -11q3 -2 9 -7t12 -11t11 -12t7 -9q-6 -12 -12 -16t-16 -4q-8 0 -32 11t-55 27t-65 36t-62 38t-48 33t-19 19z" />
    <glyph glyph-name="equal" unicode="=" horiz-adv-x="350" 
d="M55 130q10 3 33 6t52 6t60 4t58 2t45 -1t23 -8v-24h-15l-39 -1l-54 -2l-60 -2l-56 -3l-44 -5q-1 0 -1 4v10v9t-2 5zM51 235q25 3 57 7t67 8t70 5t68 2v-40l-262 -11v29z" />
    <glyph glyph-name="greater" unicode="&#x3e;" horiz-adv-x="326" 
d="M259 268l-230 192v58q8 -7 24 -20t38 -31t43 -36t44 -35t37 -30t26 -20q9 -7 22 -12t25 -13t22 -17t9 -25v-5t-2 -6q-7 -9 -20 -28t-30 -44t-36 -52t-36 -52t-30 -44t-20 -29q-9 -11 -17 -17t-22 -7v43z" />
    <glyph glyph-name="question" unicode="?" horiz-adv-x="322" 
d="M153 29q0 11 4 17t15 12q12 -6 16 -12t5 -17q0 -11 -4 -17t-17 -12q-11 6 -15 12t-4 17zM114 298q0 22 11 37t29 26t38 22t38 21t29 28t12 39q0 16 -11 26t-26 15t-33 6t-28 2q-21 0 -40 -9t-37 -21t-34 -21t-33 -9q-11 0 -17 4t-12 16q13 20 31 34t39 25t44 15t46 5
q18 0 43 -4t48 -15t40 -27t17 -42t-17 -54t-39 -53t-48 -45t-41 -31v-90q-18 0 -28 11t-14 26t-6 33t-1 30z" />
    <glyph glyph-name="at" unicode="@" horiz-adv-x="706" 
d="M19 256q0 52 14 101t41 93t62 82t80 64t93 42t103 15q33 0 67 -8t66 -23t59 -37t45 -49t25 -61t2 -72q0 -42 -12 -73t-30 -60t-33 -56t-25 -60q-1 -3 1 -9t5 -12t6 -11t7 -7q-28 -34 -56 -56t-58 -36t-66 -19t-78 -6q-59 0 -116 14t-102 46t-72 80t-28 118zM73 268
q-3 -62 18 -106t60 -70t89 -35t103 -2h51t55 5t50 18t39 37q-7 -2 -23 -3t-34 -1t-35 1t-24 3q-4 1 -14 10t-23 19t-24 19t-15 9q-5 0 -22 -5t-36 -12t-36 -13t-22 -8q-16 -4 -29 6t-24 26t-17 34t-6 30q0 32 13 72t37 75t54 59t68 25q24 0 42 -9t30 -26t19 -36t6 -44
q0 -18 -3 -34t-7 -34t-7 -34t-3 -35q0 -10 3 -20t9 -18t15 -13t20 -5q51 0 86 24t57 60t32 81t10 86q0 50 -16 89t-45 66t-71 42t-92 15q-73 0 -135 -29t-107 -77t-70 -111t-26 -131zM372 409q-50 0 -83 -17t-52 -48t-28 -71t-9 -86q54 0 88 16t52 46t25 71t7 89z" />
    <glyph glyph-name="A" unicode="A" horiz-adv-x="398" 
d="M180 623q37 0 64 -21t48 -58t35 -83t23 -98t14 -104t7 -99t2 -83t1 -58h-24l-38 211q-5 5 -22 6t-41 -1t-51 -5t-52 -5t-45 -2t-29 7v-211h-51v11t1 18t1 17t1 11q6 58 9 117t9 116t13 107t25 92t40 71t60 44zM196 577q-26 0 -43 -18t-29 -48t-17 -66t-8 -70t-2 -64
t-1 -46q49 0 100 7t96 16q1 4 1 13t1 20t1 21t1 13q0 33 -3 63t-14 58t-30 54t-53 47z" />
    <glyph glyph-name="B" unicode="B" horiz-adv-x="490" 
d="M49 499q-4 1 -9 6t-10 11t-8 12t-3 10q3 33 24 49t50 23t58 6t51 0q35 0 64 -3t52 -16t35 -36t13 -63q0 -20 -1 -35t-6 -30t-12 -31t-21 -38q41 -13 68 -24t42 -28t20 -40t6 -61q0 -44 -19 -83t-50 -68t-74 -45t-89 -17q-10 0 -27 3t-37 9t-41 13t-38 17t-27 18t-11 18
v423zM115 268q2 -24 -2 -50t-7 -50t-2 -45t12 -39t36 -29t69 -18q37 0 73 13t65 37t47 56t18 72q0 26 -9 44t-24 29t-35 17t-44 5q-29 0 -52 -1t-45 -6t-46 -13t-54 -22zM95 372q0 -8 1 -16t3 -15t9 -11t16 -5q34 0 70 13t65 36t49 54t20 71q0 4 -2 11t-9 16t-21 15t-37 13
t-59 6t-85 -4q-2 -2 -4 -13t-5 -27t-4 -36t-3 -39t-3 -38t-1 -31z" />
    <glyph glyph-name="C" unicode="C" horiz-adv-x="436" 
d="M13 259q0 31 6 69t20 78t32 77t45 67t58 48t72 18q28 0 47 -11t32 -29t17 -40t6 -46q-22 0 -33 13t-20 30t-22 30t-38 14q-33 0 -58 -18t-45 -46t-31 -65t-20 -72t-11 -69t-3 -57q-4 -34 -1 -70t17 -67t38 -51t66 -24q26 0 58 8t63 20t61 25t49 24v-39q-1 0 -12 -4
t-30 -12t-42 -15t-47 -16t-44 -16t-37 -13h-4t-5 -1q-55 0 -90 23t-57 61t-29 84t-8 92z" />
    <glyph glyph-name="D" unicode="D" horiz-adv-x="538" 
d="M38 499q-2 2 -5 7t-6 11t-5 12l-3 9q0 9 8 14t18 6t19 1h12h8t12 -1t12 -1t7 -1q33 -12 75 -28t88 -37t88 -47t77 -60t55 -74t21 -89q0 -42 -16 -75t-42 -58t-62 -42t-71 -28t-74 -16t-69 -5h-24t-35 2t-32 1t-16 1l-2 37zM95 504v-8v-13t1 -14t0 -9q1 -15 2 -48t3 -75
t4 -87t5 -87t3 -75t2 -50h19t29 -1t28 -1t20 -1q46 0 91 11t80 35t58 61t23 91q0 39 -18 74t-47 66t-68 54t-78 41t-81 27t-76 9z" />
    <glyph glyph-name="E" unicode="E" horiz-adv-x="504" 
d="M14 538q16 23 42 39t59 28t70 17t74 9t70 4t60 1h9t15 -1t14 -1h10q4 -22 -4 -30t-22 -10t-29 0t-22 1q-10 -1 -31 -5t-48 -10t-55 -12l-56 -12t-48 -11t-31 -7q-16 -6 -18 -15t-2 -21q0 -21 2 -47t6 -51t7 -47t5 -31q4 -1 15 -1h15q23 0 45 4t44 9t45 8t47 4v-37
q-10 0 -28 -1t-39 -6t-44 -8t-40 -10t-29 -10t-12 -10v-208q47 0 93 3t94 6t94 7t94 3q0 -12 -8 -19t-18 -12t-23 -7t-18 -3q-4 -1 -25 -3t-52 -6t-69 -8t-75 -8t-70 -7t-55 -6q-3 -1 -9 -1q0 134 -8 270t-41 269z" />
    <glyph glyph-name="F" unicode="F" horiz-adv-x="412" 
d="M34 518q-3 1 -7 6t-7 11t-5 12t-1 9q1 4 6 10t11 12l12 12t10 5q12 3 37 9t58 15t67 16t68 15t58 14t38 8q5 1 16 2t25 2t24 2t16 1q0 -19 -4 -27t-13 -12t-20 -3t-25 -3q-10 -3 -33 -9t-51 -13t-59 -16t-60 -16t-51 -14t-34 -10q-15 -17 -17 -31t-2 -33q0 -43 5 -81
t14 -85h5t6 -1q27 0 52 6t51 15t52 14t55 7h13t19 -3t14 -7t2 -11l-258 -78v-274q-18 0 -28 4t-14 13t-5 20t-2 27q-2 17 -5 53t-6 81t-8 96t-8 95t-7 82t-4 53z" />
    <glyph glyph-name="G" unicode="G" horiz-adv-x="562" 
d="M480 66q-39 -20 -69 -32t-58 -18t-56 -9t-66 -2q-49 0 -88 11t-66 35t-43 60t-15 89q0 47 9 99t28 103t46 99t65 84t83 57t102 22q21 0 50 -4t55 -15t45 -30t18 -50q0 -11 -10 -11t-26 8t-35 18t-38 21t-33 17t-23 5q-48 0 -87 -18t-70 -50t-55 -71t-39 -85t-23 -87
t-8 -83q-7 -47 5 -81t38 -57t60 -34t72 -12t75 6t67 26t50 42t23 56q0 32 -12 54t-33 37t-47 24t-54 14t-55 7t-51 5v18q0 2 26 7t63 11t76 12t66 9h5l11 1h12h10h7h12h11t8 -1q1 -14 2 -44t4 -68t4 -80t4 -79t3 -68t3 -45v-15v-23t1 -23t0 -16h-21zM480 277v61
q-15 0 -31 -7t-27 -15z" />
    <glyph glyph-name="H" unicode="H" horiz-adv-x="386" 
d="M22 201v136t3 126t7 127t11 140h29v-384h218q-1 36 -1 77t-1 84t-1 83t-1 77t0 63t0 42q3 0 10 -1t15 -4t14 -7t6 -12v-749l-31 6q-2 0 -3 13t-1 32t-1 45t-1 50t-1 47t-1 37v38t-1 55l-219 -39l-2 -285h-48v14v32v43v46v40v28z" />
    <glyph glyph-name="I" unicode="I" horiz-adv-x="100" 
d="M14 703q0 12 8 19t21 8h5h5q5 -84 9 -159t6 -149t4 -145t1 -152q0 -11 1 -30t3 -37t3 -32t2 -16l-43 -8q-2 41 -4 94t-3 114t-3 125l-4 128t-5 121t-6 107v12z" />
    <glyph glyph-name="J" unicode="J" horiz-adv-x="451" 
d="M19 154q0 13 1 23t18 15q17 -7 25 -21t13 -33t10 -37t14 -34t26 -23t46 -6q52 5 88 18t59 34t37 47t20 60t8 71t2 83q0 45 -6 89t-14 87t-14 87t-7 88v8t5 5t12 1t22 -6q1 -1 4 -13l8 -32t8 -42t7 -46t7 -43t4 -35q4 -60 10 -122t5 -120t-12 -107t-42 -85t-83 -54
t-136 -13q-30 0 -56 13t-46 36t-31 50t-12 57z" />
    <glyph glyph-name="K" unicode="K" horiz-adv-x="475" 
d="M33 582v28v44v43t1 29h27l1 -20l2 -55l4 -81l4 -99l5 -108l5 -108l5 -100l4 -82v-6v-13t-1 -14t-1 -9v-14t-4 -10t-12 -6t-23 -5q-1 13 -3 52t-4 94t-5 117t-3 123t-3 113t1 87zM302 288q-29 49 -60 67t-59 18t-53 -17t-39 -34v42l269 366h38l-211 -308q17 -4 41 -16
t47 -29t41 -34t25 -36l96 -293q-6 0 -11 -2t-11 -3t-10 -1t-7 6z" />
    <glyph glyph-name="L" unicode="L" horiz-adv-x="490" 
d="M62 672l38 -634q89 0 178 11t184 22l4 -33q-1 0 -18 -2t-46 -6t-65 -8l-72 -8t-69 -8t-57 -6h-5t-9 -1t-10 0t-8 0q-22 0 -36 23t-23 64t-13 93t-6 110t-2 115t1 109t0 94t-4 65h38z" />
    <glyph glyph-name="M" unicode="M" horiz-adv-x="480" 
d="M230 268h-38l-96 192v-441l-44 -6q-2 35 -3 88t-3 114t-3 127t-2 125t-2 110t-4 81q7 0 13 1t12 1t9 -1t7 -9l135 -304l115 288q2 5 7 8t12 7t14 4t12 2q1 0 1 -3t2 -21t6 -56t15 -109t25 -179t40 -268q-4 -9 -10 -12t-12 -2t-10 4t-6 10l-76 537z" />
    <glyph glyph-name="N" unicode="N" horiz-adv-x="533" 
d="M72 595v-13t-1 -20t0 -20t0 -13q0 -65 3 -130t7 -130t7 -132t3 -132l-36 2q-1 19 -3 53t-6 78t-8 96t-8 103t-8 104t-5 94t-4 77t0 52q0 12 9 20t21 8t27 -5t21 -15l360 -581q0 46 -2 99t-5 109t-2 112t1 110t10 102t22 87q14 5 22 5h12t4 -5t1 -8v-6v-5q-2 -6 -4 -22
t-7 -47t-7 -82t-6 -124t-4 -176t-1 -238l-29 -2z" />
    <glyph glyph-name="O" unicode="O" horiz-adv-x="442" 
d="M18 332q0 33 4 70t15 72t27 68t40 57t55 39t72 15q35 0 62 -19t47 -51t33 -72t21 -80t12 -78t3 -65q-4 -59 -17 -108t-35 -87t-56 -62t-80 -32q-45 0 -77 16t-55 42t-37 60t-21 71t-10 74t-3 70zM56 332q0 -24 1 -54t5 -60t14 -60t24 -52t39 -37t57 -14q48 -3 79 12
t50 46t29 75t16 100q0 22 -2 55t-7 69t-15 72t-25 66t-37 48t-52 18q-31 0 -56 -14t-44 -38t-34 -54t-24 -61t-13 -62t-5 -55z" />
    <glyph glyph-name="P" unicode="P" horiz-adv-x="388" 
d="M19 550q0 32 24 55t60 38t73 22t65 8q27 0 54 -9t49 -25t32 -42t8 -59q-5 -51 -33 -90t-70 -65t-90 -40t-94 -14q0 -37 3 -73t6 -74t7 -73t3 -74q0 -11 -2 -20t-18 -15l-20 19q0 1 -3 28t-8 70t-12 97t-13 110t-11 106t-10 88v5v9v10v8zM75 514v-39t3 -35t7 -35t11 -41
q31 5 74 19t82 38t67 55t27 71q0 21 -10 37t-25 28t-35 17t-37 6q-29 0 -58 -7t-53 -22t-38 -38t-15 -54z" />
    <glyph glyph-name="Q" unicode="Q" horiz-adv-x="538" 
d="M391 1q-45 -4 -89 -4t-86 8t-75 24t-61 44t-40 67t-15 98q0 35 8 79t25 90t41 91t55 79t69 56t82 21q30 0 58 -23t53 -58t45 -79t34 -85t23 -76t8 -51q0 -37 -5 -69t-18 -61t-30 -57t-44 -56q4 -6 12 -22t18 -35t17 -35t11 -23q1 -2 2 -9t1 -10h-42zM64 238q0 -45 15 -82
t43 -64t65 -40t80 -15h21t28 2t26 8t12 20q0 29 -14 52t-32 44t-32 42t-15 45h34l115 -153q21 15 35 36t24 46t14 51t4 50q0 42 -10 82t-28 77t-37 66t-40 54t-35 38t-23 18q-61 -15 -107 -53t-79 -90t-48 -113t-16 -121z" />
    <glyph glyph-name="R" unicode="R" horiz-adv-x="518" 
d="M425 -2q-4 18 -10 47t-15 64t-23 70t-33 63t-43 47t-58 18q-13 0 -34 -2t-41 -6t-35 -13t-15 -19v-254q-4 0 -12 2t-16 5t-14 8t-6 9v499q-12 -2 -21 -10t-14 -21t-9 -24t-4 -22q-4 0 -11 4t-13 11t-10 12t-5 12q0 25 15 48t39 43t53 35t60 27t57 17t46 6q28 0 53 -2
t43 -11t30 -30t11 -54q0 -31 -11 -60t-28 -57t-38 -51l-42 -46q47 -29 76 -58t47 -59t27 -59t15 -61t11 -63t16 -65h-38zM257 634h-19t-29 -3t-31 -6t-29 -11t-22 -16t-9 -24v-254q24 0 50 12t51 32t50 46t42 53t29 54t11 48q0 23 -7 36t-21 21t-30 10t-36 2z" />
    <glyph glyph-name="S" unicode="S" horiz-adv-x="490" 
d="M53 76q5 12 15 15t23 -15q0 -2 9 -5l24 -8t34 -9t39 -8t37 -6t31 -3q34 0 62 14t49 38t32 52t11 61q0 9 -3 31t-10 45t-18 41t-28 18q-104 -12 -170 -10t-106 16t-54 35t-17 52q0 36 18 69t46 60t62 41t69 16q28 0 58 -7t57 -21t42 -38t17 -57q-24 0 -44 13t-40 29
t-42 28t-51 14q-24 0 -48 -12t-44 -31t-32 -42t-13 -49v-21t5 -22t12 -18t25 -7h269q17 0 29 -10t21 -27t14 -36t9 -39t5 -35t1 -26q0 -39 -11 -73t-33 -62t-55 -45t-76 -22q-21 -2 -54 1t-68 11t-64 24t-44 40z" />
    <glyph glyph-name="T" unicode="T" horiz-adv-x="384" 
d="M3 543l16 52q1 1 15 2t39 4t54 6t61 6t62 6t57 6h9h20h21h13q24 0 33 -9t9 -39l-182 -21q-2 -63 2 -132t10 -139t11 -140t6 -132q0 -9 -5 -12t-13 -5t-16 0t-14 4q-3 13 -6 45t-6 75t-6 93l-6 100t-6 95t-5 80t-3 54t-3 14z" />
    <glyph glyph-name="U" unicode="U" horiz-adv-x="518" 
d="M398 250q-40 -101 -79 -156t-76 -73t-70 -5t-60 51t-47 95t-31 125t-12 142t11 147l39 -4q-11 -128 -3 -222t28 -158t44 -96t48 -38q34 0 60 18t47 47t35 66t24 75t13 73t4 62q0 34 -2 60t-6 53t-10 53t-13 64l49 36q23 -145 39 -248t29 -173t19 -111t11 -65t6 -33t2 -16
h-41z" />
    <glyph glyph-name="V" unicode="V" horiz-adv-x="529" 
d="M14 652l30 30l321 -567l110 595h32l-109 -691l-24 -25z" />
    <glyph glyph-name="W" unicode="W" horiz-adv-x="614" 
d="M293 360q-3 -11 -9 -35t-15 -54t-18 -63t-19 -63t-16 -53t-10 -34q-2 -10 -6 -21t-9 -18t-11 -3t-12 22l-154 692q3 0 10 1t10 2q20 0 26 -8t12 -34l115 -519l77 250q4 12 11 16t18 4q8 -8 23 -29t32 -50t37 -61t36 -62t32 -52t22 -34q3 -5 10 -13t17 -18t18 -17t13 -10
q-1 33 -3 78t-4 99t-2 110t1 114t9 109t16 97q2 7 5 10t8 5t12 1t17 -1q0 -11 -1 -26t-3 -44t-4 -77t-4 -124t-5 -185t-4 -262q-43 34 -80 76t-70 89t-64 97t-64 98z" />
    <glyph glyph-name="X" unicode="X" horiz-adv-x="490" 
d="M210 345l-192 307q16 6 31 1t26 -20q6 -8 18 -26t27 -40t32 -48t32 -48t27 -41t18 -27l115 249q28 7 38 2t10 -18t-13 -34t-26 -46t-32 -53t-30 -56t-21 -54t-3 -48q19 -34 47 -72t59 -77t58 -80t47 -79q1 -1 1 -3t-3 -6t-12 -6t-24 -3l-202 281l-134 -426l-29 29z" />
    <glyph glyph-name="Y" unicode="Y" horiz-adv-x="454" 
d="M292 326q-15 22 -40 54t-55 69t-60 78t-57 77t-47 70t-29 56l20 18q37 -40 64 -73t50 -63t40 -57t37 -54t43 -56t54 -61q6 28 11 62t12 72t13 75t16 74t19 67t25 53q1 1 4 1h6t8 -1t11 -3t8 -7t1 -9q-11 -23 -22 -62t-22 -87t-20 -105t-16 -115t-14 -115t-9 -108t-3 -91
t5 -66q-2 -11 -3 -16t-7 -9t-15 -3t-28 -1v336z" />
    <glyph glyph-name="Z" unicode="Z" horiz-adv-x="658" 
d="M148 28v5t1 5l104 320l-159 -11l15 47l171 24l138 234h-11h-18t-17 1t-12 0q-39 0 -77 -3t-78 -7t-77 -7t-78 -3q-12 0 -21 2t-15 17l20 20l20 2l54 5l75 8l84 8l82 8l69 7h9t12 1h10t14 -2t11 -6t1 -12l-123 -269h132q7 -16 2 -26t-17 -16t-30 -8t-39 -5t-39 -4t-33 -5
q-19 -33 -38 -70t-35 -75t-29 -77t-20 -78h8t12 -1t11 -1h8q49 0 96 8t94 17t95 17t99 8v-39q-56 0 -110 -10t-107 -24t-107 -23t-109 -11q-6 0 -15 1t-16 5t-12 9t-5 14z" />
    <glyph glyph-name="bracketleft" unicode="[" horiz-adv-x="298" 
d="M51 -72q-2 17 -3 55t-2 89t-2 111t-3 122t-3 122t-3 111t-2 89t-3 55v12q0 33 11 50t31 26t43 9t51 1h17h15t14 -6t10 -14q1 -4 1 -9t3 -9q0 -6 2 -11h-134q-1 -19 -3 -54t-6 -84t-6 -104t-5 -116t-4 -119t0 -113t6 -99t13 -76h154q11 0 15 -10t4 -18v-5v-5
q-10 -2 -31 -5t-46 -6t-51 -6t-47 -3q-13 0 -22 1t-14 19z" />
    <glyph glyph-name="backslash" unicode="\" horiz-adv-x="451" 
d="M43 652q4 -6 28 -39t72 -106t117 -187t167 -282l-19 -38l-416 652h51z" />
    <glyph glyph-name="bracketright" unicode="]" 
d="M172 -24q7 -3 21 -3t29 4t29 7t17 11v4l1 11l1 13l1 11v13t-1 18t-1 16t-1 10q-2 24 -5 61t-7 84t-7 96t-8 100t-7 95t-6 81t-5 57t-3 25l-20 57h-15t-30 2t-39 4t-42 6t-38 11t-28 16q18 16 35 17t41 2q21 0 38 -1t35 -3t37 -6t44 -9q3 -16 7 -50t9 -82t10 -102t10 -113
t11 -113t9 -103t8 -81t5 -51v-8t1 -17t1 -19v-15q0 -35 -5 -53t-21 -27t-42 -10t-69 -4v38z" />
    <glyph glyph-name="asciicircum" unicode="^" horiz-adv-x="298" 
d="M154 676q-13 -17 -26 -31t-25 -27t-24 -28t-27 -31l-29 15l134 182q18 -18 31 -39t26 -44t24 -47t27 -48q0 -7 -3 -9t-8 -4t-12 -3t-15 -6q-13 22 -20 35t-14 24t-14 25t-25 36z" />
    <glyph glyph-name="underscore" unicode="_" horiz-adv-x="451" 
d="M43 55l360 3v-39q-10 3 -36 2t-62 -2t-75 -3t-78 -2t-70 3t-51 9z" />
    <glyph glyph-name="grave" unicode="`" horiz-adv-x="253" 
d="M116 654q18 -18 27 -32t17 -29t15 -32t23 -41q0 -7 -3 -9t-8 -4t-12 -3t-15 -6q-13 22 -20 35t-13 24t-15 24t-24 37z" />
    <glyph glyph-name="a" unicode="a" 
d="M19 86q0 57 31 83t83 26q20 0 37 -1t34 -5t31 -12t33 -23v12t1 21t0 20t0 14q-1 18 -1 46t-4 59t-18 57t-44 41q-21 0 -39 -7t-36 -15t-36 -14t-39 -7q0 25 15 41t38 26t46 12t42 3q18 -3 33 -7t29 -16t25 -36t20 -69t15 -111t11 -166q2 -13 -8 -22t-29 -16t-40 -11
t-46 -7t-44 -3t-35 -1q-18 0 -36 6t-34 17t-25 28t-10 37zM149 156q-50 -14 -70 -33t-18 -38t24 -32t51 -19t65 4t67 38q-12 29 -24 44t-26 24t-31 10t-38 2z" />
    <glyph glyph-name="b" unicode="b" horiz-adv-x="375" 
d="M53 652q4 -36 8 -79t8 -89t4 -91t-1 -86q16 14 29 24t27 19t27 12t32 4q36 0 66 -17t51 -46t32 -63t12 -68q-2 -56 -23 -89t-55 -52t-81 -21t-98 1v47q18 -16 33 -18t36 -3q33 0 60 10t46 28t30 45t11 57q0 27 -3 48t-13 38t-31 32t-54 31q-2 1 -9 1t-10 1q-16 0 -32 -9
t-29 -24t-22 -32t-13 -33q-2 -12 -5 -42t-8 -66t-8 -66t-5 -43l-31 6l-20 633h39z" />
    <glyph glyph-name="c" unicode="c" horiz-adv-x="375" 
d="M19 171q0 37 12 82t35 83t57 65t79 26q23 3 37 -4t21 -24t10 -36t3 -42t1 -40t1 -31h-25q-1 6 -3 28t-9 47t-16 43t-30 19q-28 0 -52 -22t-43 -53t-29 -64t-11 -55q1 -25 7 -54t19 -54t36 -39t54 -9q24 0 46 10t43 21t42 21t46 10q0 -26 -19 -45t-46 -32t-58 -18t-52 -6
q-34 0 -62 14t-50 37t-32 55t-12 67z" />
    <glyph glyph-name="d" unicode="d" horiz-adv-x="334" 
d="M3 145q0 27 9 59t26 60t41 46t56 18q24 0 42 -4t35 -15t31 -25t31 -34l-6 513q27 10 33 8t7 -17v-6t-1 -5q-1 -19 -1 -54t-1 -81t2 -99t2 -108t2 -108t2 -100t1 -81t-2 -54q-11 -23 -30 -35t-42 -17t-47 -7t-45 -1q-67 0 -106 39t-39 108zM43 172q0 -25 4 -49t14 -44
t28 -30t46 -12h41t46 5t37 18t15 34q0 26 -7 59t-23 64t-39 52t-56 22q-21 0 -40 -11t-33 -28t-24 -38t-9 -42z" />
    <glyph glyph-name="e" unicode="e" horiz-adv-x="337" 
d="M26 235q0 30 13 66t35 68t51 53t60 22q17 0 33 -7t32 -18t28 -26t20 -31t7 -31t-8 -26l-211 -39q-4 -1 -7 -9t-5 -22t-3 -28t-3 -30t-1 -26t0 -18q0 -28 13 -45t35 -27t47 -12t53 -3t49 2t38 2q0 -4 -3 -9t-7 -9l-8 -8l-5 -5q-8 -2 -24 -5t-35 -7t-35 -5t-22 -2
q-31 -6 -54 1t-39 24t-26 41t-15 53t-5 58t2 58zM171 406q-9 0 -23 -9t-27 -24t-21 -31t-6 -29q26 -3 54 1t51 12t38 20t15 24t-19 21t-62 15z" />
    <glyph glyph-name="f" unicode="f" horiz-adv-x="373" 
d="M130 5q9 64 12 106t3 72t-2 54t0 50q-13 0 -28 -6t-31 -13t-31 -14t-29 -6q-5 0 -6 4t-3 10t-1 12t-4 14l135 58q-19 150 -14 250t29 162t62 90t86 36q37 0 70 -14t59 -40t41 -58t16 -70q-16 0 -29 10t-26 27t-24 34t-26 35t-32 26t-40 11q-20 -4 -39 -16t-36 -36
t-30 -58t-20 -88t-7 -122t8 -162l124 1q3 -13 3 -22t-14 -16q-11 -4 -28 -7l-34 -6t-33 -4t-21 -3q-1 -47 1 -89t3 -81t0 -72t-11 -65h-5h-10h-9h-5q-4 0 -8 -1t-8 -1h-6t-2 8z" />
    <glyph glyph-name="g" unicode="g" horiz-adv-x="355" 
d="M-122 -237q0 27 9 41t42 14q-3 -14 -7 -28t-8 -26t-4 -19t8 -5q32 -21 70 -30t75 -9q56 1 96 23t67 57t41 80t18 94t-2 98t-19 90q-17 -19 -34 -40t-38 -37t-42 -28t-51 -11q-29 0 -43 10t-20 27t-5 41t1 49q0 24 1 54t7 60t15 60t26 53t40 38t57 14q21 0 40 -3t36 -13
t29 -24t19 -38q4 -45 10 -97t10 -109t4 -114t-7 -110t-25 -99t-49 -82t-79 -57t-113 -24q-28 0 -59 3t-57 14t-42 30t-17 53zM70 154q0 -11 -1 -25t1 -28t8 -24t22 -11q24 0 44 11t37 30t29 42t21 49t13 48t5 42q3 19 1 38t-12 34t-24 24t-36 10q-24 0 -42 -13t-30 -35
t-19 -47t-10 -53t-5 -51t-2 -41z" />
    <glyph glyph-name="h" unicode="h" horiz-adv-x="345" 
d="M60 686l26 -328q7 6 18 18t26 22t33 18t39 7q41 -4 65 -33t37 -71t17 -91t3 -95t-5 -80t-6 -48l-36 5v28t2 46t1 56t0 54t1 46t-2 28q1 28 -11 54t-32 39t-48 10t-60 -40q-28 -42 -41 -82t-17 -80t-3 -81t0 -88l-39 6q3 11 4 40t3 71t1 93t1 105t-2 110t-2 105t-3 92
t-3 69z" />
    <glyph glyph-name="i" unicode="i" horiz-adv-x="145" 
d="M67 388q12 0 20 1t15 -10q3 -45 7 -91t8 -94t5 -94t1 -93q0 -6 -3 -7t-8 -2t-13 1t-17 -1zM9 567q0 7 1 15t4 16t9 12t14 5q12 0 24 -1t23 -4t18 -11t7 -22q0 -24 -18 -42t-44 -19q-20 0 -29 15t-9 36zM67 562q-3 0 -3 -5t3 -5q4 0 4 5t-4 5z" />
    <glyph glyph-name="j" unicode="j" horiz-adv-x="211" 
d="M-224 -315q0 10 1 17t6 8t13 -4t20 -22q0 -13 18 -21t43 -12t48 -6t36 -1q49 0 83 17t57 47t33 69t11 83q0 62 -8 119t-23 115t-32 117t-36 126q-7 30 -4 45t10 19t17 2t16 -9q17 -63 34 -129t32 -136t24 -139t9 -138q0 -47 -12 -91t-37 -79t-64 -55t-91 -21q-24 0 -59 1
t-67 8t-55 23t-23 47zM1 647q13 0 28 -3t28 -11t21 -19t9 -28q0 -39 -41 -39q-19 0 -29 10t-13 25t-4 32t1 33zM46 591q-3 0 -3 -4t3 -5q4 0 4 4t-4 5z" />
    <glyph glyph-name="k" unicode="k" horiz-adv-x="387" 
d="M56 27q-1 21 -4 64t-8 98t-8 116t-7 115t-7 98t-4 65q-1 9 -1 31t-2 48t-1 48t-1 32q14 0 25 -5t18 -19q2 -21 4 -59t6 -89t6 -107t7 -113q3 5 6 9t4 5q11 12 26 28t31 33t33 33t30 30t23 22t11 8l38 -19q-17 -15 -39 -35t-43 -42t-40 -47t-32 -49v-4t-1 -6v-4t1 -5
l231 -269v-4t1 -5q0 -19 -20 -29l-250 288q-1 1 -2 3t-4 6l11 -194v-19t1 -30t1 -31t1 -20q-13 0 -24 5t-17 19z" />
    <glyph glyph-name="l" unicode="l" horiz-adv-x="145" 
d="M44 777q14 -2 24 -7t17 -20q0 -19 1 -52t3 -78t4 -95t4 -103t3 -103t3 -95t3 -78t2 -52v-7t-1 -12t-1 -13t-1 -10q-1 -6 -1 -14t-2 -17t-6 -14t-15 -8l-17 21q-1 1 -2 37t-4 95t-5 132t-4 149t-5 144t-3 119v16t1 24t1 24t1 17z" />
    <glyph glyph-name="m" unicode="m" horiz-adv-x="562" 
d="M19 390q12 0 26 -6t20 -24q8 34 24 55t38 29t45 6t44 -15t36 -31t22 -44q11 31 29 57t41 45t47 25t46 0t38 -32t24 -71q2 -13 5 -38t6 -58t8 -67t8 -68t7 -57t5 -38q0 -10 -1 -22t-4 -20t-11 -11t-23 8q0 12 -3 39t-6 62t-7 75t-9 75t-8 62t-6 38q-15 46 -31 64t-33 16
t-32 -21t-27 -48t-22 -64t-16 -71t-7 -66t3 -51l-39 -8q3 96 -6 157t-26 95t-38 39t-41 -8t-38 -50t-25 -84t-7 -112t21 -133h-38l-2 19l-6 48l-8 67l-8 76l-8 74l-7 61v13v13z" />
    <glyph glyph-name="n" unicode="n" horiz-adv-x="405" 
d="M34 5q-2 16 -3 46t-3 69t-3 81t-2 80t-2 68t-5 47v5t-1 9t-1 8v6q15 12 25 8t18 -17t10 -34t4 -40t2 -36v-24q2 17 6 40t12 47t19 47t29 42t38 28t50 8q44 -2 72 -24t45 -59t24 -85t10 -102t2 -109t-1 -107q-9 -2 -18 -6t-15 -5t-8 9t1 34q1 18 3 55t3 84t-6 95t-18 89
t-39 66t-65 26q-41 -17 -68 -64t-44 -110t-24 -136t-9 -144q-2 1 -7 1h-12t-12 2t-7 2z" />
    <glyph glyph-name="o" unicode="o" horiz-adv-x="371" 
d="M24 183q0 23 4 53t13 62t22 61t33 53t44 38t56 15q32 0 59 -22t47 -57t30 -78t8 -84q0 -60 -23 -107t-58 -76t-76 -39t-76 5t-59 59t-24 117zM61 179q3 -61 21 -94t43 -43t56 -1t56 35t44 64t21 87q2 36 -5 70t-21 60t-33 42t-45 16q-24 0 -43 -12t-34 -32t-27 -47
t-18 -52t-11 -50t-4 -43z" />
    <glyph glyph-name="p" unicode="p" horiz-adv-x="454" 
d="M53 259q-4 -3 -11 -2t-13 3t-10 7t-5 11q0 34 21 62t52 49t66 32t64 12q46 0 83 -15t64 -43t41 -63t15 -77q1 -52 -23 -95t-64 -73t-88 -46t-96 -12q2 -36 -1 -82t-8 -102t-12 -116t-16 -127q0 -1 -6 -1t-12 1t-13 3t-8 1q7 83 11 168t3 170t-9 170t-25 165zM205 377
q-19 -1 -41 -5t-39 -14t-27 -24t-7 -37q2 -10 5 -29t8 -43t9 -50t9 -50t8 -43t6 -30q12 2 34 4t47 8t51 16t50 30t40 47t24 71q0 39 -14 67t-38 46t-56 27t-69 9z" />
    <glyph glyph-name="q" unicode="q" 
d="M245 96q-17 -15 -31 -26t-30 -19t-30 -12t-35 -4q-28 0 -47 14t-33 37t-20 48t-6 50q0 24 4 51t15 55t24 53t34 45t43 30t52 12q28 0 51 -9t39 -25t26 -41t10 -55q0 -50 -4 -99t-10 -99t-9 -100t-5 -100q-6 -36 7 -66t34 -52t47 -36t47 -17q-4 -3 -12 -6t-18 -6t-17 -5
t-11 -2q-20 2 -40 12t-36 26t-28 36t-11 41v269zM52 193q0 -13 4 -33t12 -38t21 -32t31 -14q34 0 61 19t46 48t28 62t10 63q0 17 -3 38t-12 41t-26 33t-41 14q-20 0 -37 -12t-32 -31t-26 -42t-19 -45t-12 -42t-5 -29z" />
    <glyph glyph-name="r" unicode="r" horiz-adv-x="306" 
d="M13 390q12 5 21 2t15 -11t9 -18t5 -21q13 22 37 35t53 18t56 3t47 -12t28 -26t-4 -39q-26 15 -54 24t-56 6t-50 -20t-38 -56t-18 -100t8 -156h-38l-1 16l-3 44l-4 60l-5 67l-3 65l-4 55v12t-1 19t0 20t0 13z" />
    <glyph glyph-name="s" unicode="s" horiz-adv-x="394" 
d="M72 81q18 0 33 -7t31 -15l30 -15t34 -7q21 0 43 7t42 21t31 33t12 43q1 7 1 17t-7 20t-20 20t-40 15t-67 5t-99 -7q-15 0 -29 8t-25 21t-18 27t-7 28q0 39 16 63t43 39t58 21t65 6q15 0 34 -1t36 -8t28 -21t12 -39q-2 -17 -5 -20t-10 1t-16 16t-21 19t-30 15t-40 0
q-23 0 -46 -4t-41 -16t-30 -30t-12 -48q0 -15 13 -20t36 -6t51 1t59 2t58 -4t49 -18t34 -39t9 -65q0 -29 -16 -55t-42 -45t-57 -31t-60 -8q-12 1 -32 6t-40 16t-34 24t-14 35z" />
    <glyph glyph-name="t" unicode="t" horiz-adv-x="380" 
d="M142 363q-9 3 -24 3t-33 -2t-34 -4t-27 -2q-5 0 -6 14t-5 40l141 10q3 35 4 50t1 25t-1 24t-1 43q26 4 39 3t19 -8t5 -17t-3 -29t-4 -41t1 -54l120 4v-49q-8 0 -25 -1t-36 -2t-36 -2t-25 -4q-8 -36 -17 -77t-12 -81t2 -74t25 -57t57 -31t98 5q-2 -15 -11 -24t-22 -15
t-27 -8t-25 -3q-51 0 -81 18t-45 49t-19 68t-3 79t6 79t4 71z" />
    <glyph glyph-name="u" unicode="u" horiz-adv-x="458" 
d="M19 388q0 5 6 10t16 8t19 4t13 -3q6 -124 23 -197t40 -108t49 -34t51 21t46 62t35 84t17 90t-8 80l60 7q1 -15 5 -49t10 -78t13 -91t12 -87t9 -69t4 -36h-43l-47 173q-14 -35 -34 -67t-43 -56t-50 -37t-51 -12t-50 24t-44 66t-36 118t-22 177z" />
    <glyph glyph-name="v" unicode="v" horiz-adv-x="398" 
d="M10 442l31 31l220 -400l94 387q7 -3 15 -4t14 -3t11 -4t4 -7q-13 -64 -24 -120t-25 -109l-28 -106t-35 -112h-39z" />
    <glyph glyph-name="w" unicode="w" horiz-adv-x="567" 
d="M209 13l-195 447l26 27l166 -372l76 245l193 -264q9 49 11 98t3 99t-1 101t2 102l43 -16v-127v-87v-58t-1 -38t-3 -29t-5 -30t-7 -41t-10 -63q-31 24 -60 60t-54 72t-49 66t-42 45z" />
    <glyph glyph-name="x" unicode="x" horiz-adv-x="394" 
d="M10 460l19 20l154 -173l96 192l39 -28l-98 -212v-4t1 -5q13 -18 37 -50l51 -68t47 -68t28 -51l-38 -19l-144 198q-12 -8 -25 -32t-27 -54t-25 -57t-18 -41l-40 11l79 219z" />
    <glyph glyph-name="y" unicode="y" horiz-adv-x="384" 
d="M214 -410q0 50 9 103l18 106t16 106t2 104l-249 422q22 20 35 22t15 1q7 -10 23 -37t38 -63t46 -76t45 -76t37 -64t22 -39l46 371l50 -25l-108 -858z" />
    <glyph glyph-name="z" unicode="z" horiz-adv-x="480" 
d="M110 211l-4 45l95 5l82 161l-264 -17l-5 37q1 0 20 2t50 7t68 9t75 9t70 7t55 5l-89 -220l95 7l2 -47l-140 -10l-58 -165q73 -3 144 -2t145 2v-33q-3 0 -24 -1t-54 -3t-72 -4t-78 -3t-73 -2t-56 2l71 209h-55z" />
    <glyph glyph-name="braceleft" unicode="{" horiz-adv-x="298" 
d="M10 230q11 32 27 57t32 51t26 54t11 68q0 21 -3 40t-7 39t-7 40t-4 40q0 27 13 51t35 41t47 28t52 11q7 0 16 -1t17 -5t13 -10t5 -18q-20 0 -47 -5t-52 -17t-42 -31t-18 -47q0 -21 3 -42t8 -42t8 -42t4 -43q0 -26 -7 -48t-14 -43t-15 -43t-7 -45v-11t2 -7q18 -46 27 -77
t17 -55t12 -42t17 -38t29 -41t51 -55q3 -4 3 -10t-3 -12t-8 -10t-10 -6q-36 0 -58 12t-34 34t-19 48t-10 57t-10 58t-17 53t-30 41t-53 23z" />
    <glyph glyph-name="bar" unicode="|" horiz-adv-x="145" 
d="M32 823v14t4 22t13 16t27 -1v-26l2 -72l1 -107l2 -131l2 -142l2 -144l2 -133l1 -112q0 -9 -1 -15t-6 -11t-12 -6t-22 -3q-1 1 -1 25t-2 67t-2 98t-3 119t-3 130t-3 130t-2 120t-2 102v9t1 17t1 19t1 15z" />
    <glyph glyph-name="braceright" unicode="}" 
d="M206 -87q27 7 43 15t24 19t11 26t2 32q0 14 -3 41t-10 61t-14 70t-18 68t-18 56t-17 34q8 86 8 144t-3 96t-13 58t-19 31t-20 12t-19 6q-18 0 -34 -3t-32 -7l-32 -8t-34 -4q0 22 14 37t36 24t43 14t38 4q33 0 57 -13t39 -34t22 -49t8 -57q0 -36 -4 -70t-9 -65t-8 -54
t1 -42q32 -33 48 -74t24 -85t10 -91t4 -92q0 -27 -7 -49t-23 -39t-39 -26t-56 -9v23z" />
    <glyph glyph-name="asciitilde" unicode="~" horiz-adv-x="311" 
d="M109 550q-11 8 -17 3t-12 -17t-9 -25t-8 -22t-9 -7t-11 20q0 47 15 66t49 19q19 -9 31 -21l23 -23t19 -17t19 -2t23 20t31 52q6 0 13 -5t8 -15q-16 -41 -31 -61t-30 -26t-28 0t-27 17t-25 23t-24 21z" />
    <glyph glyph-name="nbspace" unicode="&#xa0;" horiz-adv-x="384" 
 />
    <glyph glyph-name="exclamdown" unicode="&#xa1;" horiz-adv-x="158" 
d="M111 595q-21 -14 -29 -30t-8 -30t11 -25t21 -12t26 7t25 34q0 9 -3 19t-9 18t-15 13t-19 6zM120 539q-4 0 -6 2t-2 7t2 7t6 3q8 -2 8 -9t-8 -10zM32 -13q0 -9 1 -12t5 -3t12 -1t18 -5l52 430q-2 1 -8 3t-10 2q-10 0 -16 -4t-10 -12t-4 -19t-4 -23q-1 -5 -3 -24t-5 -49
t-7 -64t-7 -69t-8 -65t-5 -52v-5l-1 -11v-11v-6z" />
    <glyph glyph-name="cent" unicode="&#xa2;" horiz-adv-x="375" 
d="M172 466v13t4 22t13 16t28 0v-24v-66q18 0 29 -10t17 -27t8 -35t2 -40t1 -37t1 -28h-25q-1 5 -2 20t-5 34t-9 38t-16 31q1 -66 1 -150t2 -176q16 7 31 16t31 17t32 13t35 6q0 -20 -12 -36t-30 -29t-41 -19t-46 -13v-12t1 -14q-1 -9 -3 -10t-7 -1t-13 4t-21 3q-3 2 -3 26
q-34 0 -62 14t-50 37t-32 55t-12 67q0 34 9 74t29 76t47 65t66 37zM57 193q1 -25 7 -54t19 -54t36 -39t54 -9h1q-1 27 -1 64t-1 82t-1 95t-2 105q-24 -8 -44 -31t-36 -52t-23 -58t-9 -49z" />
    <glyph glyph-name="sterling" unicode="&#xa3;" horiz-adv-x="490" 
d="M17 302q1 1 5 2t17 2q7 1 19 1q-5 75 0 125q8 64 28 94t47 39t54 -2t50 -25t34 -33t7 -25t-31 -1t-82 41q-21 12 -33 -3t-18 -49t-7 -83q0 -35 2 -74q17 2 40 4q9 1 21 2t25 2t21 -3t13 -7t-1 -12t-22 -20q-24 -3 -39 -4t-28 -2t-28 -2q3 -48 7 -97q6 -56 12 -105
q45 20 86 26t80 4t73 -13t67 -27l-6 -36q-11 6 -35 10t-56 7t-67 3t-67 -2t-59 -9t-40 -17q-34 150 -45 252h-8q-6 -1 -12 -1t-7 -1h-11t-8 4t-3 12t5 23z" />
    <glyph glyph-name="currency" unicode="&#xa4;" horiz-adv-x="444" 
d="M73 183q0 18 2 40t8 47t14 49t20 47l-58 94l19 20l64 -72q19 25 44 41t59 16q23 0 43 -11t37 -32l39 49l40 -29l-49 -66q18 -33 26 -73t7 -79q0 -57 -21 -104q23 -33 41 -61t25 -46l-39 -19l-56 78q-24 -29 -54 -47t-61 -24t-60 3t-50 36q-19 -22 -32 -39t-18 -28l-40 10
l66 99q-8 19 -12 44t-4 57zM107 186q2 -61 20 -94t45 -43t56 -1t56 35t44 64t21 87q0 36 -6 70t-21 60t-33 42t-45 16q-24 0 -43 -12t-35 -33t-26 -46t-18 -52t-11 -50t-4 -43z" />
    <glyph glyph-name="yen" unicode="&#xa5;" horiz-adv-x="349" 
d="M71 274q24 3 53 6t63 7v39q-16 22 -34 55t-38 71t-38 79t-36 79t-30 72t-22 56l18 19l198 -373q9 41 24 92t33 103t38 98t41 81q2 1 5 1h5q3 0 8 -1t11 -3t9 -6t0 -10q-12 -26 -33 -69t-42 -97t-38 -117t-25 -128v-36q23 1 47 2t46 1v-40l-95 -4v-65q41 1 71 0t37 -8v-24
h-8l-24 -1l-34 -1l-42 -1l-1 -132q-1 -11 -2 -16t-7 -9t-15 -3t-27 -1v158q-33 -1 -61 -3t-48 -5q-1 0 -1 4v9v10t-2 6q13 3 43 7t69 7v66l-116 -4v29z" />
    <glyph glyph-name="brokenbar" unicode="&#xa6;" horiz-adv-x="145" 
d="M98 388q2 -48 3 -93t3 -85t2 -69t2 -47v-7t-1 -12t-1 -13t-1 -10q-1 -6 -1 -14t-2 -17t-6 -14t-15 -8l-17 21q-1 1 -2 32t-3 82t-4 116t-5 136zM44 418q-1 43 -1 75v61t1 54t0 55v16t1 24t1 24t1 17q14 -2 24 -7t17 -20q1 -40 4 -114t8 -188z" />
    <glyph glyph-name="section" unicode="&#xa7;" horiz-adv-x="397" 
d="M35 117q18 0 39 -12t43 -28t43 -28t40 -12q21 0 45 3t46 10t36 23t14 37q-1 6 -1 13t-4 17t-13 20t-31 24q-21 -10 -43 -12t-43 -6q-28 -3 -55 4t-50 24t-35 38t-14 47t15 50t53 50h-4t-6 -1q-15 0 -29 8t-25 20t-18 27t-7 29q0 38 16 63t43 40t58 20t66 6q15 0 34 -1
t36 -9t28 -20t11 -39q-1 -17 -5 -20t-10 1t-15 15t-22 20t-30 14t-39 1q-24 0 -49 -4t-45 -16t-31 -31t-5 -48q4 -18 20 -25t40 -10t53 0t58 2t56 -3t46 -15t30 -35t7 -62q0 -11 -5 -25t-14 -27t-17 -27t-19 -22q13 -6 23 -13t16 -18t10 -27t2 -38q0 -29 -18 -51t-46 -37
t-61 -21t-61 0q-13 2 -30 8t-35 16t-37 20t-31 23t-20 25t-4 25zM300 233q19 14 31 33t12 42q-1 38 -33 56t-81 15q-24 0 -49 -7t-47 -23t-34 -37t-14 -52q0 -9 13 -23t41 -23t67 -7t94 26z" />
    <glyph glyph-name="dieresis" unicode="&#xa8;" horiz-adv-x="347" 
d="M46 544q-3 15 1 23t12 12t18 5t18 1t17 -1t18 -5t12 -12t0 -23q-3 -14 -17 -27t-30 -13q-8 0 -16 3t-14 10t-11 13t-8 14zM194 544q-4 15 0 23t13 12t18 5t18 1q7 0 17 -1t18 -5t12 -12t0 -23q-1 -7 -6 -14t-11 -13t-15 -9t-15 -4q-17 0 -31 13t-18 27z" />
    <glyph glyph-name="copyright" unicode="&#xa9;" horiz-adv-x="520" 
d="M127 226q0 30 11 69t30 73t46 58t57 24q17 3 28 -4t17 -22t11 -33t6 -37t3 -35t2 -26l-31 -8q0 5 -1 23t-6 37t-12 35t-21 15q-20 0 -36 -17t-30 -43t-21 -52t-8 -45q1 -19 5 -42t14 -43t25 -31t38 -7q17 0 32 7t30 17t30 16t32 8q0 -21 -13 -38t-33 -29t-41 -19t-37 -7
q-24 0 -47 14t-40 36t-29 50t-11 56zM23 274q-1 45 10 93t36 90t67 71t102 34q43 -1 79 -17t66 -44t51 -62t36 -75t20 -80t3 -80q-6 -70 -31 -120t-63 -81t-82 -47t-91 -16q-45 0 -77 15t-55 42t-37 61t-21 71t-10 74t-3 71zM61 274q0 -25 1 -55t6 -61t13 -60t24 -51t39 -37
t58 -14q47 -7 89 1t77 33t56 68t29 106q4 25 0 58t-18 68t-33 70t-45 62t-56 44t-62 17q-45 -5 -78 -33t-56 -65t-33 -79t-11 -72z" />
    <glyph glyph-name="ordfeminine" unicode="&#xaa;" horiz-adv-x="224" 
d="M11 176q0 33 20 47t53 15h24t22 -3t20 -7t21 -13v6t1 12t0 12t0 8q-1 10 -1 26t-3 33t-11 32t-28 23q-14 0 -25 -4t-23 -8t-23 -8t-26 -4q0 14 10 23t24 14t30 7t27 2q12 -2 22 -4t18 -9t16 -20t13 -39t10 -63t7 -93q1 -8 -6 -13t-18 -9t-26 -6t-29 -4t-28 -1t-23 -1
q-12 0 -24 3t-22 10t-16 16t-6 20zM95 216q-32 -8 -45 -19t-12 -21t15 -18t33 -11t42 2t43 22q-7 16 -15 25t-17 13t-20 6t-24 1z" />
    <glyph glyph-name="guillemotleft" unicode="&#xab;" horiz-adv-x="476" 
d="M32 163v5t2 4l211 288h23q0 -24 -10 -51t-27 -53t-38 -52t-40 -46t-36 -39t-26 -27v-38q9 -3 25 -10t38 -17t43 -20t44 -20t37 -18t24 -11q3 -2 9 -7t12 -11t11 -12t7 -9q-6 -12 -12 -16t-16 -4q-8 0 -32 11t-55 27t-65 36t-62 38t-48 33t-19 19zM154 194v5t2 4l211 288
h24q0 -25 -11 -52t-27 -53t-37 -51t-41 -46t-36 -39t-25 -27v-39q8 -3 24 -10t38 -17t44 -19t43 -20t37 -18t24 -12q3 -1 9 -6t12 -11t11 -12t7 -9q-6 -12 -12 -16t-16 -4q-8 0 -32 11t-55 27t-65 36t-62 38t-48 32t-19 20z" />
    <glyph glyph-name="logicalnot" unicode="&#xac;" horiz-adv-x="388" 
d="M304 268l-270 -19l-2 50q32 -9 72 -5t81 11t83 11t79 -4q-3 -29 -3 -43v-29t3 -34t3 -60q-8 -11 -20 -9t-26 2v44v85z" />
    <glyph glyph-name="hyphen_" unicode="&#xad;" horiz-adv-x="389" 
d="M34 230q0 1 22 4t58 8t79 8t89 8h16t24 1t24 1t17 1q0 -13 -5 -24t-18 -17q-24 -3 -60 -6t-74 -8t-74 -8t-60 -6h-9t-12 -1q-13 0 -22 2t-15 18z" />
    <glyph glyph-name="registered" unicode="&#xae;" horiz-adv-x="518" 
d="M376 97q-4 12 -9 36t-16 49t-28 41t-43 18q-7 0 -19 -1t-23 -5t-20 -7t-9 -10v-114h-8t-12 -2t-11 -1t-5 3l4 257q-14 -3 -17 -14t-3 -22q-3 0 -8 3t-10 9t-9 9t-4 7q0 19 18 36t43 30t51 20t42 8q15 0 30 -4t27 -12t20 -21t8 -31q0 -15 -5 -29t-14 -28t-19 -26t-21 -22
q37 -22 55 -42t26 -41t11 -42t12 -46zM284 412q-6 0 -18 -1t-25 -4t-22 -9t-10 -16v-126q19 0 40 13t41 31t31 40t13 38q0 22 -14 28t-36 6zM26 280q0 33 4 69t15 72t27 68t40 57t55 40t72 15q41 10 78 -4t69 -44t55 -72t39 -89t19 -94t-3 -87q-6 -71 -31 -121t-63 -81
t-82 -47t-91 -16q-44 0 -76 15t-55 42t-37 61t-22 71t-10 74t-3 71zM64 280q0 -24 1 -54t6 -62t13 -60t24 -51t39 -37t58 -14q47 -7 89 1t77 33t56 68t29 107q7 27 3 66t-16 79t-32 80t-46 70t-57 46t-67 11q-31 0 -56 -14t-44 -38t-34 -54t-24 -61t-14 -62t-5 -54z" />
    <glyph glyph-name="overscore" unicode="&#xaf;" horiz-adv-x="451" 
d="M43 514l360 3v-38q-10 2 -36 2t-62 -2t-75 -3l-78 -2t-70 3t-51 9z" />
    <glyph glyph-name="degree" unicode="&#xb0;" horiz-adv-x="230" 
d="M9 259q0 14 3 32t9 37t15 37t21 32t30 22t38 9q21 0 39 -13t32 -34t20 -46t6 -51q0 -36 -15 -64t-40 -45t-51 -24t-51 3t-40 35t-16 70zM34 257q2 -36 14 -56t29 -26t38 0t37 21t30 38t14 52q1 21 -4 41t-14 37t-22 25t-30 9q-16 0 -29 -7t-23 -19t-17 -28t-13 -31
t-7 -30t-3 -26z" />
    <glyph glyph-name="plusminus" unicode="&#xb1;" horiz-adv-x="327" 
d="M43 133q1 2 21 3t65 5q-1 16 -1 27t-1 21t0 21t-1 26h-103l-8 43l118 7v120q17 6 32 6t22 -6l3 -110h116v-44q-35 -3 -65 -5t-51 -3l-4 -98h10t11 2h16t25 1t24 1t17 1q0 -14 -6 -25t-18 -17q-48 -5 -91 -7t-92 -7h-10t-12 -1q-13 0 -22 2t-14 19z" />
    <glyph glyph-name="twosuperior" unicode="&#xb2;" horiz-adv-x="322" 
d="M127 168q-18 -9 -32 -10t-34 -2h-16t-16 4t-13 10t-5 16q0 6 13 8t33 6t44 10t44 22t33 41t14 67q0 18 -3 37t-12 35t-24 26t-40 11q-10 0 -18 -4t-14 -10l-13 -13l-13 -13t-15 -10t-20 -4q0 16 8 30t21 25t31 17t34 6q26 0 47 -12t37 -31t23 -42t8 -45q0 -21 -6 -41
t-18 -40t-24 -37t-29 -34q15 -11 34 -18t40 -10t41 -5t37 -2q1 0 1 -2t1 -3q0 -7 -5 -11t-13 -6t-15 -2h-14q-17 0 -33 3t-32 8t-32 11t-35 14zM89 179q1 3 -3 4t-9 2t-10 -1t-4 -5q2 -2 5 -3t8 -2t7 1t6 4z" />
    <glyph glyph-name="threesuperior" unicode="&#xb3;" horiz-adv-x="261" 
d="M34 180q11 0 20 -2t20 -5t20 -5t21 -3q20 0 39 6t33 19t23 31t8 42q0 16 -7 29t-18 23t-26 15t-29 5h-6h-7h-7t-3 -1q-2 0 -7 -2l-10 -4t-11 -4t-7 -2t-3 1t-4 4t-3 4t-1 3q3 4 13 14t21 22t21 21t13 15q3 3 7 9t7 11l6 10t3 6q-3 20 -13 26t-23 5t-29 -10t-30 -18
t-26 -18t-20 -12q0 21 12 37t30 27t39 18t39 6q8 0 16 -5t14 -13t11 -18t4 -18q0 -10 -3 -21t-9 -21t-11 -20t-12 -17q16 -5 32 -14t30 -22t21 -29t9 -37q0 -26 -8 -49t-24 -41t-38 -27t-47 -10h-21t-30 2t-27 8t-12 15v14z" />
    <glyph glyph-name="acute" unicode="&#xb4;" horiz-adv-x="181" 
d="M152 619q-13 -18 -26 -31t-25 -27t-25 -28t-26 -31l-29 15q35 45 54 73t28 42t13 16t5 -1t9 -12t22 -16z" />
    <glyph glyph-name="mu" unicode="&#xb5;" horiz-adv-x="458" 
d="M19 388q0 5 6 10t16 8t19 4t13 -3q6 -124 23 -197t40 -108t49 -34t51 21t46 62t35 84t17 90t-8 80l60 7q1 -15 5 -49t10 -78t13 -91t12 -87t9 -69t4 -36h-43l-47 173q-13 -33 -33 -63t-45 -52t-51 -34t-53 -11t-52 18t-45 55l-6 -116q-5 -1 -12 -2l-14 -2t-12 1t-4 12
q0 16 1 45t3 67t2 79v82t-2 75t-7 59z" />
    <glyph glyph-name="paragraph" unicode="&#xb6;" horiz-adv-x="372" 
d="M223 277q-20 -21 -35 -33t-31 -18t-31 -8t-40 -3q-18 0 -32 8t-23 21t-15 32t-6 39q0 136 136 136h45t49 -1t51 -4t52 -12q3 -55 6 -84t4 -45t2 -24t1 -23t1 -41t0 -80q0 -11 1 -30t2 -37t3 -32t1 -15l-42 -9q-2 41 -3 71t-2 57t-2 51t-2 53t-3 64t-5 85q-4 0 -8 1t-8 1
t-9 2v-4v-4q3 -47 6 -85t5 -74t4 -76t1 -88v-9v-15t-1 -15t0 -9q-24 -7 -34 3t-12 31t0 51t3 60t-5 60t-24 52z" />
    <glyph glyph-name="middot" unicode="&#xb7;" horiz-adv-x="172" 
d="M99 166q-24 14 -33 31t-8 32t11 27t23 13t29 -7t28 -36q0 -11 -3 -21t-10 -19t-16 -14t-21 -6zM108 225q-5 1 -6 -2t-2 -7t1 -8t7 -3q9 3 9 10t-9 10z" />
    <glyph glyph-name="cedilla" unicode="&#xb8;" horiz-adv-x="324" 
d="M95 -158q12 0 22 -5t21 -12t21 -12t23 -5q14 -2 31 5t30 20t20 27t-2 25t-36 14t-80 -3q-9 0 -19 6t-17 16t-12 22t-5 22q-5 30 3 48t19 20t14 -15t-9 -59q0 -15 12 -18t31 -3t41 2t40 -3t31 -22t13 -52q0 -22 -10 -38t-26 -27t-35 -15t-39 -1q-8 0 -22 4t-27 12t-23 20
t-10 27z" />
    <glyph glyph-name="onesuperior" unicode="&#xb9;" horiz-adv-x="258" 
d="M19 149l18 3t11 1t8 1t8 0t14 2t25 4q6 15 9 34t5 42t3 45t1 46t2 44t4 39h-2l-4 1q-13 0 -25 -5t-25 -10t-25 -11t-27 -5l-3 20q1 0 9 3t19 7t27 10t30 9t28 9t23 5v-273q6 -5 17 -5t24 -1t25 1t22 -1l-1 -22q-26 0 -52 -2t-51 -4t-51 -5t-51 -3q-7 0 -8 6t-7 15z" />
    <glyph glyph-name="ordmasculine" unicode="&#xba;" horiz-adv-x="230" 
d="M9 259q0 14 3 32t9 37t15 37t21 32t30 22t38 9q21 0 39 -13t32 -34t20 -46t6 -51q0 -36 -15 -64t-40 -45t-51 -24t-51 3t-40 35t-16 70zM34 257q2 -36 14 -56t29 -26t38 0t37 21t30 38t14 52q1 21 -4 41t-14 37t-22 25t-30 9q-16 0 -29 -7t-23 -19t-17 -28t-13 -31
t-7 -30t-3 -26z" />
    <glyph glyph-name="guillemotright" unicode="&#xbb;" horiz-adv-x="482" 
d="M259 268l-230 192v58q8 -7 24 -20t38 -31t43 -36t44 -35t37 -30t26 -20q9 -7 22 -12t25 -13t22 -17t9 -25v-5t-2 -6q-7 -9 -20 -28t-30 -44t-36 -52t-36 -52t-30 -44t-20 -29q-9 -11 -17 -17t-22 -7v43zM395 287l-230 192v58q7 -7 23 -21t38 -30t44 -36t44 -36t37 -30
t25 -20q9 -7 22 -12t26 -13t21 -16t9 -26v-5t-1 -5q-7 -9 -20 -29t-30 -44t-36 -52t-36 -52t-30 -44t-21 -29q-8 -10 -16 -17t-22 -7v44z" />
    <glyph glyph-name="onequarter" unicode="&#xbc;" horiz-adv-x="630" 
d="M23 164q12 2 18 2t11 1t7 1h8t13 2t24 4q6 14 9 32t5 38t3 42t1 43t2 42t4 36h-3t-3 1q-13 0 -25 -5l-24 -10t-24 -9t-26 -5l-2 18q1 0 8 3t18 7t27 9t29 9t27 7t22 6v-255q6 -4 16 -5t23 -1t25 1t21 0l-1 -21q-25 0 -50 -2t-49 -4t-49 -4t-50 -3q-7 0 -8 6t-7 14z
M255 543q2 6 4 13t5 10t7 -1t11 -22l-114 -551l-21 30zM386 209h-8t-8 1q-17 0 -35 -2t-35 -4t-34 -5t-36 -2q0 22 3 43t6 43t6 43t3 43q3 0 7 -1t7 -3t7 -4t3 -5v-123l8 -1l21 -1l26 -1l25 1l20 3l8 7v118q2 0 8 -1t11 -3l10 -4t5 -5v-100h106q-3 -6 -4 -11t-2 -9t-3 -6
q-14 -3 -31 -4t-32 -1t-25 -1t-11 1l2 -206h-28v200z" />
    <glyph glyph-name="onehalf" unicode="&#xbd;" horiz-adv-x="662" 
d="M39 159l18 3t10 1t7 1t9 0t13 2t25 4q5 16 8 35t5 42t3 47l2 48t2 45t4 41h-3h-3q-13 0 -25 -5t-25 -11t-24 -11t-26 -5l-3 21q1 0 8 3t19 8t27 9t29 10t28 9t22 6v-282q6 -5 17 -5t23 -1t25 1t21 -1l-1 -23q-26 0 -51 -2l-50 -4t-50 -5t-49 -3q-7 0 -9 7t-6 15zM362 532
q2 6 5 13t7 10t11 -1t15 -22l-162 -549l-30 30zM348 23q-18 -9 -32 -11t-33 -2q-7 0 -15 1t-16 4t-13 10t-5 17q0 6 13 9t33 6t43 11t42 22t33 44t14 72q0 18 -3 38t-11 37t-24 28t-40 12q-10 0 -17 -4t-14 -11t-13 -14t-13 -14t-15 -11t-20 -4q0 17 8 32t22 27t29 17t34 7
q26 0 47 -13t36 -33t22 -44t8 -47q0 -23 -6 -45t-17 -42t-24 -39t-28 -35q14 -12 33 -19t40 -11t40 -6t37 -2v-2l1 -3q0 -7 -5 -11t-12 -7t-15 -2t-14 0q-17 0 -32 3t-32 8t-32 13t-34 14zM311 35q1 3 -3 4t-10 2t-9 -1t-4 -5q2 -3 5 -4t8 -1t7 1t6 4z" />
    <glyph glyph-name="threequarters" unicode="&#xbe;" horiz-adv-x="1070" 
d="M49 60q17 0 33 -3t33 -8t34 -8t35 -4q33 0 64 10t56 31t38 49t14 66q0 26 -12 47t-31 37t-44 23t-47 9h-10h-13t-10 -1t-6 -1q-2 0 -10 -3t-18 -6t-19 -7t-11 -3q-2 0 -5 2t-6 5l-6 6t-2 6q6 6 23 22t35 35t35 34t22 24q4 5 10 14t13 18t10 16t5 10q-6 32 -22 42t-39 7
t-48 -16t-50 -29t-44 -29t-33 -19q0 33 20 59t51 44t65 28t64 10q14 0 27 -8t24 -22t17 -28t7 -29q0 -16 -5 -33t-14 -34t-18 -32t-20 -27q26 -8 53 -22t50 -35t36 -47t14 -58q0 -43 -14 -80t-41 -65t-62 -43t-78 -16h-35t-50 5t-45 12t-20 23v22zM571 538q2 6 5 13t7 10
t11 -1t15 -22l-162 -549l-30 30zM864 384h-12t-12 1q-24 0 -49 -4t-49 -8t-49 -8t-51 -4q0 40 4 79t9 78t8 79t4 79q4 0 10 -2t11 -5t9 -8t4 -9v-225q1 0 13 -1t29 -3t36 -1t36 1t28 6t12 13v215q3 0 11 -2t17 -5t14 -8t6 -8v-183h150q-3 -11 -5 -21q-1 -8 -3 -16t-4 -11
q-20 -6 -44 -7t-46 -2t-35 -1t-16 1l3 -375h-39v365z" />
    <glyph glyph-name="questiondown" unicode="&#xbf;" horiz-adv-x="322" 
d="M160 492q0 -10 4 -16t13 -11q11 5 15 11t4 16q0 11 -4 16t-15 12q-9 -6 -13 -11t-4 -17zM125 236q0 -21 10 -35t26 -26t34 -20t34 -20t26 -26t11 -38q0 -15 -9 -24t-24 -15t-29 -6t-26 -2q-19 0 -36 9t-33 20t-31 20t-29 9q-10 0 -15 -4t-11 -15q12 -20 28 -33t35 -23
t39 -15t42 -5q16 0 38 4t44 15t36 25t15 40q0 25 -15 51t-36 51t-42 43t-38 30v85q-16 0 -25 -10t-13 -25t-5 -32t-1 -28z" />
    <glyph glyph-name="Agrave" unicode="&#xc0;" horiz-adv-x="398" 
d="M180 623q37 0 64 -21t48 -58t35 -83t23 -98t14 -104t7 -99t2 -83t1 -58h-24l-38 211q-5 5 -22 6t-41 -1t-51 -5t-52 -5t-45 -2t-29 7v-211h-51v11t1 18t1 17t1 11q6 58 9 117t9 116t13 107t25 92t40 71t60 44zM196 577q-26 0 -43 -18t-29 -48t-17 -66t-8 -70t-2 -64
t-1 -46q49 0 100 7t96 16q1 4 1 13t1 20t1 21t1 13q0 33 -3 63t-14 58t-30 54t-53 47zM172 808q18 -18 27 -32t17 -29t15 -32t23 -41q0 -7 -3 -9t-8 -4t-12 -3t-15 -6q-13 22 -20 35t-13 24t-15 24t-24 37z" />
    <glyph glyph-name="Aacute" unicode="&#xc1;" horiz-adv-x="398" 
d="M180 623q37 0 64 -21t48 -58t35 -83t23 -98t14 -104t7 -99t2 -83t1 -58h-24l-38 211q-5 5 -22 6t-41 -1t-51 -5t-52 -5t-45 -2t-29 7v-211h-51v11t1 18t1 17t1 11q6 58 9 117t9 116t13 107t25 92t40 71t60 44zM196 577q-26 0 -43 -18t-29 -48t-17 -66t-8 -70t-2 -64
t-1 -46q49 0 100 7t96 16q1 4 1 13t1 20t1 21t1 13q0 33 -3 63t-14 58t-30 54t-53 47zM259 773q-13 -18 -26 -31t-25 -27t-25 -28t-26 -31l-29 15q35 45 54 73t28 42t13 16t5 -1t9 -12t22 -16z" />
    <glyph glyph-name="Acircumflex" unicode="&#xc2;" horiz-adv-x="398" 
d="M180 623q37 0 64 -21t48 -58t35 -83t23 -98t14 -104t7 -99t2 -83t1 -58h-24l-38 211q-5 5 -22 6t-41 -1t-51 -5t-52 -5t-45 -2t-29 7v-211h-51v11t1 18t1 17t1 11q6 58 9 117t9 116t13 107t25 92t40 71t60 44zM196 577q-26 0 -43 -18t-29 -48t-17 -66t-8 -70t-2 -64
t-1 -46q49 0 100 7t96 16q1 4 1 13t1 20t1 21t1 13q0 33 -3 63t-14 58t-30 54t-53 47zM209 830q-13 -17 -26 -31t-25 -27t-24 -28t-27 -31l-29 15l134 182q18 -18 31 -39t26 -44t24 -47t27 -48q0 -7 -3 -9t-8 -4t-12 -3t-15 -6q-13 22 -20 35t-14 24t-14 25t-25 36z" />
    <glyph glyph-name="Atilde" unicode="&#xc3;" horiz-adv-x="398" 
d="M180 623q37 0 64 -21t48 -58t35 -83t23 -98t14 -104t7 -99t2 -83t1 -58h-24l-38 211q-5 5 -22 6t-41 -1t-51 -5t-52 -5t-45 -2t-29 7v-211h-51v11t1 18t1 17t1 11q6 58 9 117t9 116t13 107t25 92t40 71t60 44zM196 577q-26 0 -43 -18t-29 -48t-17 -66t-8 -70t-2 -64
t-1 -46q49 0 100 7t96 16q1 4 1 13t1 20t1 21t1 13q0 33 -3 63t-14 58t-30 54t-53 47zM149 704q-11 8 -17 3t-12 -17t-9 -25t-8 -22t-9 -7t-11 20q0 47 15 66t49 19q19 -9 31 -21l23 -23t19 -17t19 -2t23 20t31 52q6 0 13 -5t8 -15q-16 -41 -31 -61t-30 -26t-28 0t-27 17
t-25 23t-24 21z" />
    <glyph glyph-name="Adieresis" unicode="&#xc4;" horiz-adv-x="398" 
d="M180 623q37 0 64 -21t48 -58t35 -83t23 -98t14 -104t7 -99t2 -83t1 -58h-24l-38 211q-5 5 -22 6t-41 -1t-51 -5t-52 -5t-45 -2t-29 7v-211h-51v11t1 18t1 17t1 11q6 58 9 117t9 116t13 107t25 92t40 71t60 44zM196 577q-26 0 -43 -18t-29 -48t-17 -66t-8 -70t-2 -64
t-1 -46q49 0 100 7t96 16q1 4 1 13t1 20t1 21t1 13q0 33 -3 63t-14 58t-30 54t-53 47zM77 698q-3 15 1 23t12 12t18 5t18 1t17 -1t18 -5t12 -12t0 -23q-3 -14 -17 -27t-30 -13q-8 0 -16 3t-14 10t-11 13t-8 14zM225 698q-4 15 0 23t13 12t18 5t18 1q7 0 17 -1t18 -5t12 -12
t0 -23q-1 -7 -6 -14t-11 -13t-15 -9t-15 -4q-17 0 -31 13t-18 27z" />
    <glyph glyph-name="Aring" unicode="&#xc5;" horiz-adv-x="398" 
d="M137 661q0 7 1 18t5 22t13 17t22 8q36 0 54 -20t18 -48q0 -9 -3 -19t-9 -20q-6 -8 -14 -15q15 -5 28 -15q28 -21 48 -57t35 -83t23 -98t13 -104t7 -99t3 -83t1 -58h-24l-39 211q-5 5 -22 6t-41 -1t-51 -5t-52 -5t-45 -2t-29 7v-211h-51v11t1 18t1 17t1 11q6 58 9 117
t9 116t14 107t24 92t40 71q18 22 42 35l-1 1q-11 6 -18 15t-10 21t-3 22zM204 565q-26 0 -44 -18t-28 -48t-17 -66t-8 -70t-3 -64t-1 -46q49 0 100 7t97 16q1 4 1 13t1 20t1 21t1 13q0 33 -3 63t-14 58t-31 54t-52 47zM157 661q10 -27 20 -34t19 -4t16 15t11 25
q-3 21 -15 31t-25 10t-21 -11t-5 -32z" />
    <glyph glyph-name="AE" unicode="&#xc6;" horiz-adv-x="794" 
d="M298 538q16 23 42 39t60 28t70 17t73 9t70 4t60 1h9t15 -1t14 -1h10q4 -22 -4 -30t-22 -10t-28 0t-23 1q-10 -1 -31 -5t-47 -10t-56 -12t-56 -12t-48 -11t-30 -7q-17 -6 -19 -15t-2 -21q0 -21 3 -47t6 -51t6 -47t6 -31q3 -1 14 -1h15q23 0 45 4t44 9t45 8t47 4v-37
q-9 0 -27 -1t-40 -6t-44 -8t-40 -10t-29 -10t-12 -10v-208q48 0 94 3t93 6t94 7t94 3q0 -12 -7 -19t-19 -12t-22 -7t-19 -3q-4 -1 -25 -3t-52 -6t-69 -8t-75 -8t-70 -7t-55 -6q-3 -1 -9 -1v37l-35 194q-5 5 -22 6t-41 -1t-51 -5t-52 -5t-45 -2t-29 7v-211h-51v11t1 18t1 17
t1 11q6 58 9 117t9 116t13 107t25 92t40 71t60 44q37 0 64 -21t48 -58l7 -12q0 2 -1 6zM196 577q-26 0 -43 -18t-29 -48t-17 -66t-8 -70t-2 -64t-1 -46q49 0 100 7t96 16q1 4 1 13t1 20t1 21t1 13q0 33 -3 63t-14 58t-30 54t-53 47z" />
    <glyph glyph-name="Ccedilla" unicode="&#xc7;" horiz-adv-x="436" 
d="M166 -172q12 0 22 -5t21 -12t21 -12t23 -5q13 -3 30 5t31 20t20 27t-3 24t-36 15t-79 -4q-10 0 -19 6t-17 17t-12 22t-5 22q-6 30 3 49l2 4q-36 4 -62 21q-35 24 -56 61t-29 84t-8 92q0 31 6 69t20 78t32 77t45 67t58 48t72 18q28 0 47 -11t32 -29t17 -40t6 -46
q-22 0 -33 13t-20 30t-22 30t-38 14q-33 0 -58 -18t-45 -46t-31 -65t-20 -72t-11 -69t-3 -57q-4 -34 -1 -70t17 -67t38 -51t66 -24q26 0 58 8t63 20t61 25t49 24v-39q-1 0 -12 -4t-30 -12t-42 -15l-47 -17q-23 -8 -44 -15t-37 -13h-4q-2 -1 -3 0q3 -18 -9 -58q0 -16 12 -19
t31 -2t40 2t41 -3t31 -22t13 -52q0 -22 -10 -38t-26 -27t-35 -15t-40 -2q-8 1 -22 5t-27 12t-22 19t-10 28z" />
    <glyph glyph-name="Egrave" unicode="&#xc8;" horiz-adv-x="504" 
d="M14 538q16 23 42 39t59 28t70 17t74 9t70 4t60 1h9t15 -1t14 -1h10q4 -22 -4 -30t-22 -10t-29 0t-22 1q-10 -1 -31 -5t-48 -10t-55 -12l-56 -12t-48 -11t-31 -7q-16 -6 -18 -15t-2 -21q0 -21 2 -47t6 -51t7 -47t5 -31q4 -1 15 -1h15q23 0 45 4t44 9t45 8t47 4v-37
q-10 0 -28 -1t-39 -6t-44 -8t-40 -10t-29 -10t-12 -10v-208q47 0 93 3t94 6t94 7t94 3q0 -12 -8 -19t-18 -12t-23 -7t-18 -3q-4 -1 -25 -3t-52 -6t-69 -8t-75 -8t-70 -7t-55 -6q-3 -1 -9 -1q0 134 -8 270t-41 269zM225 808q18 -18 27 -32t17 -29t15 -32t23 -41q0 -7 -3 -9
t-8 -4t-12 -3t-15 -6q-13 22 -20 35t-13 24t-15 24t-24 37z" />
    <glyph glyph-name="Eacute" unicode="&#xc9;" horiz-adv-x="504" 
d="M14 538q16 23 42 39t59 28t70 17t74 9t70 4t60 1h9t15 -1t14 -1h10q4 -22 -4 -30t-22 -10t-29 0t-22 1q-10 -1 -31 -5t-48 -10t-55 -12l-56 -12t-48 -11t-31 -7q-16 -6 -18 -15t-2 -21q0 -21 2 -47t6 -51t7 -47t5 -31q4 -1 15 -1h15q23 0 45 4t44 9t45 8t47 4v-37
q-10 0 -28 -1t-39 -6t-44 -8t-40 -10t-29 -10t-12 -10v-208q47 0 93 3t94 6t94 7t94 3q0 -12 -8 -19t-18 -12t-23 -7t-18 -3q-4 -1 -25 -3t-52 -6t-69 -8t-75 -8t-70 -7t-55 -6q-3 -1 -9 -1q0 134 -8 270t-41 269zM312 773q-13 -18 -26 -31t-25 -27t-25 -28t-26 -31l-29 15
q35 45 54 73t28 42t13 16t5 -1t9 -12t22 -16z" />
    <glyph glyph-name="Ecircumflex" unicode="&#xca;" horiz-adv-x="504" 
d="M14 538q16 23 42 39t59 28t70 17t74 9t70 4t60 1h9t15 -1t14 -1h10q4 -22 -4 -30t-22 -10t-29 0t-22 1q-10 -1 -31 -5t-48 -10t-55 -12l-56 -12t-48 -11t-31 -7q-16 -6 -18 -15t-2 -21q0 -21 2 -47t6 -51t7 -47t5 -31q4 -1 15 -1h15q23 0 45 4t44 9t45 8t47 4v-37
q-10 0 -28 -1t-39 -6t-44 -8t-40 -10t-29 -10t-12 -10v-208q47 0 93 3t94 6t94 7t94 3q0 -12 -8 -19t-18 -12t-23 -7t-18 -3q-4 -1 -25 -3t-52 -6t-69 -8t-75 -8t-70 -7t-55 -6q-3 -1 -9 -1q0 134 -8 270t-41 269zM261 830q-13 -17 -26 -31t-25 -27t-24 -28t-27 -31l-29 15
l134 182q18 -18 31 -39t26 -44t24 -47t27 -48q0 -7 -3 -9t-8 -4t-12 -3t-15 -6q-13 22 -20 35t-14 24t-14 25t-25 36z" />
    <glyph glyph-name="Edieresis" unicode="&#xcb;" horiz-adv-x="504" 
d="M14 538q16 23 42 39t59 28t70 17t74 9t70 4t60 1h9t15 -1t14 -1h10q4 -22 -4 -30t-22 -10t-29 0t-22 1q-10 -1 -31 -5t-48 -10t-55 -12l-56 -12t-48 -11t-31 -7q-16 -6 -18 -15t-2 -21q0 -21 2 -47t6 -51t7 -47t5 -31q4 -1 15 -1h15q23 0 45 4t44 9t45 8t47 4v-37
q-10 0 -28 -1t-39 -6t-44 -8t-40 -10t-29 -10t-12 -10v-208q47 0 93 3t94 6t94 7t94 3q0 -12 -8 -19t-18 -12t-23 -7t-18 -3q-4 -1 -25 -3t-52 -6t-69 -8t-75 -8t-70 -7t-55 -6q-3 -1 -9 -1q0 134 -8 270t-41 269zM129 698q-3 15 1 23t12 12t18 5t18 1t17 -1t18 -5t12 -12
t0 -23q-3 -14 -17 -27t-30 -13q-8 0 -16 3t-14 10t-11 13t-8 14zM277 698q-4 15 0 23t13 12t18 5t18 1q7 0 17 -1t18 -5t12 -12t0 -23q-1 -7 -6 -14t-11 -13t-15 -9t-15 -4q-17 0 -31 13t-18 27z" />
    <glyph glyph-name="Igrave" unicode="&#xcc;" horiz-adv-x="100" 
d="M14 703q0 12 8 19t21 8h5h5q5 -84 9 -159t6 -149t4 -145t1 -152q0 -11 1 -30t3 -37t3 -32t2 -16l-43 -8q-2 41 -4 94t-3 114t-3 125l-4 128t-5 121t-6 107v12zM14 925q18 -18 27 -32t17 -29t15 -32t23 -41q0 -7 -3 -9t-8 -4t-12 -3t-15 -6q-13 22 -20 35t-13 24t-15 24
t-24 37z" />
    <glyph glyph-name="Iacute" unicode="&#xcd;" horiz-adv-x="100" 
d="M14 703q0 12 8 19t21 8h5h5q5 -84 9 -159t6 -149t4 -145t1 -152q0 -11 1 -30t3 -37t3 -32t2 -16l-43 -8q-2 41 -4 94t-3 114t-3 125l-4 128t-5 121t-6 107v12zM120 902q-13 -18 -26 -31t-25 -27t-25 -28t-26 -31l-29 15q35 45 54 73t28 42t13 16t5 -1t9 -12t22 -16z" />
    <glyph glyph-name="Icircumflex" unicode="&#xce;" horiz-adv-x="100" 
d="M14 703q0 12 8 19t21 8h5h5q5 -84 9 -159t6 -149t4 -145t1 -152q0 -11 1 -30t3 -37t3 -32t2 -16l-43 -8q-2 41 -4 94t-3 114t-3 125l-4 128t-5 121t-6 107v12zM66 895q-13 -17 -26 -31t-25 -27t-24 -28t-27 -31l-29 15l134 182q18 -18 31 -39t26 -44t24 -47t27 -48
q0 -7 -3 -9t-8 -4t-12 -3t-15 -6q-13 22 -20 35t-14 24t-14 25t-25 36z" />
    <glyph glyph-name="Idieresis" unicode="&#xcf;" horiz-adv-x="100" 
d="M14 703q0 12 8 19t21 8h5h5q5 -84 9 -159t6 -149t4 -145t1 -152q0 -11 1 -30t3 -37t3 -32t2 -16l-43 -8q-2 41 -4 94t-3 114t-3 125l-4 128t-5 121t-6 107v12zM-83 828q-3 15 1 23t12 12t18 5t18 1t17 -1t18 -5t12 -12t0 -23q-3 -14 -17 -27t-30 -13q-8 0 -16 3t-14 10
t-11 13t-8 14zM65 828q-4 15 0 23t13 12t18 5t18 1q7 0 17 -1t18 -5t12 -12t0 -23q-1 -7 -6 -14t-11 -13t-15 -9t-15 -4q-17 0 -31 13t-18 27z" />
    <glyph glyph-name="Eth" unicode="&#xd0;" horiz-adv-x="538" 
d="M21 222l1 1l5 2l11 2l23 5l-23 267q-2 2 -5 7t-6 11t-5 12l-3 9q0 9 8 14t18 6t19 1h12h8t12 -1t12 -1t7 -1q33 -12 75 -28t88 -37t88 -47t77 -60t55 -74t21 -89q0 -42 -16 -75t-42 -58t-62 -42t-71 -28t-74 -16t-69 -5h-24t-35 2t-32 1t-16 1l-2 37l-12 146h-5h-9
t-13 -1q-12 0 -21 2t-15 17zM95 504v-8v-13t1 -14t0 -9q1 -12 1 -35t2 -54t3 -65t4 -70l34 3q8 4 24 4t29 -3t17 -14t-12 -25q-16 -2 -28 -3t-23 -3t-19 -3t-20 -3q2 -50 4 -91t3 -60h19t29 -1t28 -1t20 -1q46 0 91 11t80 35t58 61t23 91q0 39 -18 74t-47 66t-68 54t-78 41
t-81 27t-76 9z" />
    <glyph glyph-name="Ntilde" unicode="&#xd1;" horiz-adv-x="533" 
d="M72 595v-13t-1 -20t0 -20t0 -13q0 -65 3 -130t7 -130t7 -132t3 -132l-36 2q-1 19 -3 53t-6 78t-8 96t-8 103t-8 104t-5 94t-4 77t0 52q0 12 9 20t21 8t27 -5t21 -15l360 -581q0 46 -2 99t-5 109t-2 112t1 110t10 102t22 87q14 5 22 5h12t4 -5t1 -8v-6v-5q-2 -6 -4 -22
t-7 -47t-7 -82t-6 -124t-4 -176t-1 -238l-29 -2zM212 779q-11 8 -17 3t-12 -17t-9 -25t-8 -22t-9 -7t-11 20q0 47 15 66t49 19q19 -9 31 -21l23 -23t19 -17t19 -2t23 20t31 52q6 0 13 -5t8 -15q-16 -41 -31 -61t-30 -26t-28 0t-27 17t-25 23t-24 21z" />
    <glyph glyph-name="Ograve" unicode="&#xd2;" horiz-adv-x="442" 
d="M18 332q0 33 4 70t15 72t27 68t40 57t55 39t72 15q35 0 62 -19t47 -51t33 -72t21 -80t12 -78t3 -65q-4 -59 -17 -108t-35 -87t-56 -62t-80 -32q-45 0 -77 16t-55 42t-37 60t-21 71t-10 74t-3 70zM56 332q0 -24 1 -54t5 -60t14 -60t24 -52t39 -37t57 -14q48 -3 79 12
t50 46t29 75t16 100q0 22 -2 55t-7 69t-15 72t-25 66t-37 48t-52 18q-31 0 -56 -14t-44 -38t-34 -54t-24 -61t-13 -62t-5 -55zM193 847q18 -18 27 -32t17 -29t15 -32t23 -41q0 -7 -3 -9t-8 -4t-12 -3t-15 -6q-13 22 -20 35t-13 24t-15 24t-24 37z" />
    <glyph glyph-name="Oacute" unicode="&#xd3;" horiz-adv-x="442" 
d="M18 332q0 33 4 70t15 72t27 68t40 57t55 39t72 15q35 0 62 -19t47 -51t33 -72t21 -80t12 -78t3 -65q-4 -59 -17 -108t-35 -87t-56 -62t-80 -32q-45 0 -77 16t-55 42t-37 60t-21 71t-10 74t-3 70zM56 332q0 -24 1 -54t5 -60t14 -60t24 -52t39 -37t57 -14q48 -3 79 12
t50 46t29 75t16 100q0 22 -2 55t-7 69t-15 72t-25 66t-37 48t-52 18q-31 0 -56 -14t-44 -38t-34 -54t-24 -61t-13 -62t-5 -55zM279 791q-13 -18 -26 -31t-25 -27t-25 -28t-26 -31l-29 15q35 45 54 73t28 42t13 16t5 -1t9 -12t22 -16z" />
    <glyph glyph-name="Ocircumflex" unicode="&#xd4;" horiz-adv-x="442" 
d="M18 332q0 33 4 70t15 72t27 68t40 57t55 39t72 15q35 0 62 -19t47 -51t33 -72t21 -80t12 -78t3 -65q-4 -59 -17 -108t-35 -87t-56 -62t-80 -32q-45 0 -77 16t-55 42t-37 60t-21 71t-10 74t-3 70zM56 332q0 -24 1 -54t5 -60t14 -60t24 -52t39 -37t57 -14q48 -3 79 12
t50 46t29 75t16 100q0 22 -2 55t-7 69t-15 72t-25 66t-37 48t-52 18q-31 0 -56 -14t-44 -38t-34 -54t-24 -61t-13 -62t-5 -55zM230 830q-13 -17 -26 -31t-25 -27t-24 -28t-27 -31l-29 15l134 182q18 -18 31 -39t26 -44t24 -47t27 -48q0 -7 -3 -9t-8 -4t-12 -3t-15 -6
q-13 22 -20 35t-14 24t-14 25t-25 36z" />
    <glyph glyph-name="Otilde" unicode="&#xd5;" horiz-adv-x="442" 
d="M18 332q0 33 4 70t15 72t27 68t40 57t55 39t72 15q35 0 62 -19t47 -51t33 -72t21 -80t12 -78t3 -65q-4 -59 -17 -108t-35 -87t-56 -62t-80 -32q-45 0 -77 16t-55 42t-37 60t-21 71t-10 74t-3 70zM56 332q0 -24 1 -54t5 -60t14 -60t24 -52t39 -37t57 -14q48 -3 79 12
t50 46t29 75t16 100q0 22 -2 55t-7 69t-15 72t-25 66t-37 48t-52 18q-31 0 -56 -14t-44 -38t-34 -54t-24 -61t-13 -62t-5 -55zM173 761q-11 8 -17 3t-12 -17t-9 -25t-8 -22t-9 -7t-11 20q0 47 15 66t49 19q19 -9 31 -21l23 -23t19 -17t19 -2t23 20t31 52q6 0 13 -5t8 -15
q-16 -41 -31 -61t-30 -26t-28 0t-27 17t-25 23t-24 21z" />
    <glyph glyph-name="Odieresis" unicode="&#xd6;" horiz-adv-x="442" 
d="M18 332q0 33 4 70t15 72t27 68t40 57t55 39t72 15q35 0 62 -19t47 -51t33 -72t21 -80t12 -78t3 -65q-4 -59 -17 -108t-35 -87t-56 -62t-80 -32q-45 0 -77 16t-55 42t-37 60t-21 71t-10 74t-3 70zM56 332q0 -24 1 -54t5 -60t14 -60t24 -52t39 -37t57 -14q48 -3 79 12
t50 46t29 75t16 100q0 22 -2 55t-7 69t-15 72t-25 66t-37 48t-52 18q-31 0 -56 -14t-44 -38t-34 -54t-24 -61t-13 -62t-5 -55zM101 727q-3 15 1 23t12 12t18 5t18 1t17 -1t18 -5t12 -12t0 -23q-3 -14 -17 -27t-30 -13q-8 0 -16 3t-14 10t-11 13t-8 14zM249 727q-4 15 0 23
t13 12t18 5t18 1q7 0 17 -1t18 -5t12 -12t0 -23q-1 -7 -6 -14t-11 -13t-15 -9t-15 -4q-17 0 -31 13t-18 27z" />
    <glyph glyph-name="multiply" unicode="&#xd7;" horiz-adv-x="281" 
d="M54 341l46 31l57 -65l54 99l39 -28l-56 -119l65 -76l-38 -20l-55 69q-10 -18 -15 -30t-9 -22t-7 -21t-11 -24l-39 10l45 125z" />
    <glyph glyph-name="Oslash" unicode="&#xd8;" horiz-adv-x="442" 
d="M295 642q3 7 7 16t10 12t16 -2t21 -26l-16 -49q4 -5 7 -10q20 -32 33 -72t21 -80t12 -78t3 -65q-4 -59 -17 -108t-35 -87t-56 -62t-80 -32q-45 0 -77 16l-8 4l-14 -42l-43 37l13 38l-4 5q-22 26 -36 60t-21 71t-10 74t-3 70t4 70t15 72t27 68t40 57t55 39t72 15
q34 0 61 -19zM56 332q0 -24 1 -54t5 -60t14 -60t24 -52q3 -6 7 -10l173 503q-20 17 -48 17q-31 0 -56 -14t-44 -38t-34 -54t-24 -61t-13 -62t-5 -55zM196 55q48 -3 79 12t50 46t29 75t16 100q0 22 -2 55t-7 69t-15 72t-26 66l-1 3l-168 -490q20 -8 45 -8z" />
    <glyph glyph-name="Ugrave" unicode="&#xd9;" horiz-adv-x="518" 
d="M398 250q-40 -101 -79 -156t-76 -73t-70 -5t-60 51t-47 95t-31 125t-12 142t11 147l39 -4q-11 -128 -3 -222t28 -158t44 -96t48 -38q34 0 60 18t47 47t35 66t24 75t13 73t4 62q0 34 -2 60t-6 53t-10 53t-13 64l49 36q23 -145 39 -248t29 -173t19 -111t11 -65t6 -33t2 -16
h-41zM185 837q18 -18 27 -32t17 -29t15 -32t23 -41q0 -7 -3 -9t-8 -4t-12 -3t-15 -6q-13 22 -20 35t-13 24t-15 24t-24 37z" />
    <glyph glyph-name="Uacute" unicode="&#xda;" horiz-adv-x="518" 
d="M398 250q-40 -101 -79 -156t-76 -73t-70 -5t-60 51t-47 95t-31 125t-12 142t11 147l39 -4q-11 -128 -3 -222t28 -158t44 -96t48 -38q34 0 60 18t47 47t35 66t24 75t13 73t4 62q0 34 -2 60t-6 53t-10 53t-13 64l49 36q23 -145 39 -248t29 -173t19 -111t11 -65t6 -33t2 -16
h-41zM319 773q-13 -18 -26 -31t-25 -27t-25 -28t-26 -31l-29 15q35 45 54 73t28 42t13 16t5 -1t9 -12t22 -16z" />
    <glyph glyph-name="Ucircumflex" unicode="&#xdb;" horiz-adv-x="518" 
d="M398 250q-40 -101 -79 -156t-76 -73t-70 -5t-60 51t-47 95t-31 125t-12 142t11 147l39 -4q-11 -128 -3 -222t28 -158t44 -96t48 -38q34 0 60 18t47 47t35 66t24 75t13 73t4 62q0 34 -2 60t-6 53t-10 53t-13 64l49 36q23 -145 39 -248t29 -173t19 -111t11 -65t6 -33t2 -16
h-41zM193 819q-13 -17 -26 -31t-25 -27t-24 -28t-27 -31l-29 15l134 182q18 -18 31 -39t26 -44t24 -47t27 -48q0 -7 -3 -9t-8 -4t-12 -3t-15 -6q-13 22 -20 35t-14 24t-14 25t-25 36z" />
    <glyph glyph-name="Udieresis" unicode="&#xdc;" horiz-adv-x="518" 
d="M398 250q-40 -101 -79 -156t-76 -73t-70 -5t-60 51t-47 95t-31 125t-12 142t11 147l39 -4q-11 -128 -3 -222t28 -158t44 -96t48 -38q34 0 60 18t47 47t35 66t24 75t13 73t4 62q0 34 -2 60t-6 53t-10 53t-13 64l49 36q23 -145 39 -248t29 -173t19 -111t11 -65t6 -33t2 -16
h-41zM69 698q-3 15 1 23t12 12t18 5t18 1t17 -1t18 -5t12 -12t0 -23q-3 -14 -17 -27t-30 -13q-8 0 -16 3t-14 10t-11 13t-8 14zM217 698q-4 15 0 23t13 12t18 5t18 1q7 0 17 -1t18 -5t12 -12t0 -23q-1 -7 -6 -14t-11 -13t-15 -9t-15 -4q-17 0 -31 13t-18 27z" />
    <glyph glyph-name="Yacute" unicode="&#xdd;" horiz-adv-x="454" 
d="M292 326q-15 22 -40 54t-55 69t-60 78t-57 77t-47 70t-29 56l20 18q37 -40 64 -73t50 -63t40 -57t37 -54t43 -56t54 -61q6 28 11 62t12 72t13 75t16 74t19 67t25 53q1 1 4 1h6t8 -1t11 -3t8 -7t1 -9q-11 -23 -22 -62t-22 -87t-20 -105t-16 -115t-14 -115t-9 -108t-3 -91
t5 -66q-2 -11 -3 -16t-7 -9t-15 -3t-28 -1v336zM306 927q-13 -18 -26 -31t-25 -27t-25 -28t-26 -31l-29 15q35 45 54 73t28 42t13 16t5 -1t9 -12t22 -16z" />
    <glyph glyph-name="Thorn" unicode="&#xde;" horiz-adv-x="343" 
d="M58 564q-1 -32 -1 -48t1 -26t0 -13t0 -11t-1 -20t-2 -40q16 13 29 24t27 19t26 12t32 4q36 0 66 -18t51 -46t32 -62t12 -68q-2 -57 -23 -90t-55 -51t-81 -21t-98 0v47q18 -16 33 -18t36 -3q33 0 60 10t46 29t30 44t11 57q0 27 -3 48t-13 38t-30 33t-54 30q-2 1 -9 2
t-11 1q-16 0 -31 -9t-29 -24t-22 -32t-14 -34q-1 -7 -2 -33t-3 -60t-2 -74t-3 -73t-2 -60t-2 -34l-31 6l-9 564h39z" />
    <glyph glyph-name="germandbls" unicode="&#xdf;" horiz-adv-x="450" 
d="M78 -128q-3 0 -8 27t-12 73t-11 104t-7 120t0 120t10 107t23 78t42 34q34 4 71 5t69 -8t51 -30t21 -61q0 -20 -4 -39t-16 -36t-32 -30t-52 -23q42 3 78 -7t63 -32t43 -52t16 -68q0 -43 -26 -74t-66 -50t-89 -30t-94 -11l5 46q34 3 75 9t76 19t58 35t23 60q0 37 -14 59
t-38 35t-51 17t-56 6t-52 2t-38 3l7 57q26 3 51 9t47 17t34 30t14 49v11t-2 14t-13 15t-29 12t-52 6t-82 -4q-3 -9 -8 -44t-8 -86t-5 -114t1 -128t12 -130t27 -116z" />
    <glyph glyph-name="agrave" unicode="&#xe0;" 
d="M19 86q0 57 31 83t83 26q20 0 37 -1t34 -5t31 -12t33 -23v12t1 21t0 20t0 14q-1 18 -1 46t-4 59t-18 57t-44 41q-21 0 -39 -7t-36 -15t-36 -14t-39 -7q0 25 15 41t38 26t46 12t42 3q18 -3 33 -7t29 -16t25 -36t20 -69t15 -111t11 -166q2 -13 -8 -22t-29 -16t-40 -11
t-46 -7t-44 -3t-35 -1q-18 0 -36 6t-34 17t-25 28t-10 37zM149 156q-50 -14 -70 -33t-18 -38t24 -32t51 -19t65 4t67 38q-12 29 -24 44t-26 24t-31 10t-38 2zM146 654q18 -18 27 -32t17 -29t15 -32t23 -41q0 -7 -3 -9t-8 -4t-12 -3t-15 -6q-13 22 -20 35t-13 24t-15 24
t-24 37z" />
    <glyph glyph-name="aacute" unicode="&#xe1;" 
d="M19 86q0 57 31 83t83 26q20 0 37 -1t34 -5t31 -12t33 -23v12t1 21t0 20t0 14q-1 18 -1 46t-4 59t-18 57t-44 41q-21 0 -39 -7t-36 -15t-36 -14t-39 -7q0 25 15 41t38 26t46 12t42 3q18 -3 33 -7t29 -16t25 -36t20 -69t15 -111t11 -166q2 -13 -8 -22t-29 -16t-40 -11
t-46 -7t-44 -3t-35 -1q-18 0 -36 6t-34 17t-25 28t-10 37zM149 156q-50 -14 -70 -33t-18 -38t24 -32t51 -19t65 4t67 38q-12 29 -24 44t-26 24t-31 10t-38 2zM234 619q-13 -18 -26 -31t-25 -27t-25 -28t-26 -31l-29 15q35 45 54 73t28 42t13 16t5 -1t9 -12t22 -16z" />
    <glyph glyph-name="acircumflex" unicode="&#xe2;" 
d="M19 86q0 57 31 83t83 26q20 0 37 -1t34 -5t31 -12t33 -23v12t1 21t0 20t0 14q-1 18 -1 46t-4 59t-18 57t-44 41q-21 0 -39 -7t-36 -15t-36 -14t-39 -7q0 25 15 41t38 26t46 12t42 3q18 -3 33 -7t29 -16t25 -36t20 -69t15 -111t11 -166q2 -13 -8 -22t-29 -16t-40 -11
t-46 -7t-44 -3t-35 -1q-18 0 -36 6t-34 17t-25 28t-10 37zM149 156q-50 -14 -70 -33t-18 -38t24 -32t51 -19t65 4t67 38q-12 29 -24 44t-26 24t-31 10t-38 2zM182 676q-13 -17 -26 -31t-25 -27t-24 -28t-27 -31l-29 15l134 182q18 -18 31 -39t26 -44t24 -47t27 -48
q0 -7 -3 -9t-8 -4t-12 -3t-15 -6q-13 22 -20 35t-14 24t-14 25t-25 36z" />
    <glyph glyph-name="atilde" unicode="&#xe3;" 
d="M19 86q0 57 31 83t83 26q20 0 37 -1t34 -5t31 -12t33 -23v12t1 21t0 20t0 14q-1 18 -1 46t-4 59t-18 57t-44 41q-21 0 -39 -7t-36 -15t-36 -14t-39 -7q0 25 15 41t38 26t46 12t42 3q18 -3 33 -7t29 -16t25 -36t20 -69t15 -111t11 -166q2 -13 -8 -22t-29 -16t-40 -11
t-46 -7t-44 -3t-35 -1q-18 0 -36 6t-34 17t-25 28t-10 37zM149 156q-50 -14 -70 -33t-18 -38t24 -32t51 -19t65 4t67 38q-12 29 -24 44t-26 24t-31 10t-38 2zM122 550q-11 8 -17 3t-12 -17t-9 -25t-8 -22t-9 -7t-11 20q0 47 15 66t49 19q19 -9 31 -21l23 -23t19 -17t19 -2
t23 20t31 52q6 0 13 -5t8 -15q-16 -41 -31 -61t-30 -26t-28 0t-27 17t-25 23t-24 21z" />
    <glyph glyph-name="adieresis" unicode="&#xe4;" 
d="M19 86q0 57 31 83t83 26q20 0 37 -1t34 -5t31 -12t33 -23v12t1 21t0 20t0 14q-1 18 -1 46t-4 59t-18 57t-44 41q-21 0 -39 -7t-36 -15t-36 -14t-39 -7q0 25 15 41t38 26t46 12t42 3q18 -3 33 -7t29 -16t25 -36t20 -69t15 -111t11 -166q2 -13 -8 -22t-29 -16t-40 -11
t-46 -7t-44 -3t-35 -1q-18 0 -36 6t-34 17t-25 28t-10 37zM149 156q-50 -14 -70 -33t-18 -38t24 -32t51 -19t65 4t67 38q-12 29 -24 44t-26 24t-31 10t-38 2zM50 544q-3 15 1 23t12 12t18 5t18 1t17 -1t18 -5t12 -12t0 -23q-3 -14 -17 -27t-30 -13q-8 0 -16 3t-14 10t-11 13
t-8 14zM198 544q-4 15 0 23t13 12t18 5t18 1q7 0 17 -1t18 -5t12 -12t0 -23q-1 -7 -6 -14t-11 -13t-15 -9t-15 -4q-17 0 -31 13t-18 27z" />
    <glyph glyph-name="aring" unicode="&#xe5;" 
d="M121 512q0 8 1 19t6 21t12 17t22 8q37 0 55 -20t18 -48q0 -8 -3 -18t-10 -21q-5 -6 -11 -11l15 -3q16 -4 29 -16t25 -36t20 -69t15 -111t11 -166q2 -13 -8 -22t-29 -16t-40 -11t-46 -7t-44 -3t-35 -1q-18 0 -36 6t-34 17t-25 28t-10 37q0 57 31 83t83 26q20 0 37 -1
t34 -5t31 -12t33 -23v12t1 21v34q-1 18 -1 46t-4 59t-18 57t-44 41q-21 0 -39 -7t-36 -15t-36 -14t-39 -7q0 25 15 41t38 26q19 7 40 11q-6 4 -11 10q-7 10 -10 21t-3 22zM149 156q-50 -14 -70 -33t-18 -38t24 -32t51 -19t65 4t67 38q-12 29 -24 44t-26 24t-31 10t-38 2z
M142 512q9 -26 19 -33t20 -5t15 16t11 24q-3 21 -15 31t-25 10t-21 -11t-4 -32z" />
    <glyph glyph-name="ae" unicode="&#xe6;" horiz-adv-x="580" 
d="M19 86q0 57 31 83t83 26q20 0 37 -1t34 -5t31 -12t33 -23v12t1 21v34q-1 18 -1 46t-4 59t-18 57t-44 41q-21 0 -39 -7t-36 -15t-36 -14t-39 -7q0 25 15 41t38 26t46 12t42 3q18 -3 33 -7t29 -16t25 -36t20 -70l2 -10q11 24 26 46q23 31 52 52t59 22q17 0 34 -7t32 -18
t27 -26t20 -31t7 -31t-8 -26l-211 -39q-3 -1 -6 -9t-5 -22l-4 -28t-3 -31q0 -12 -1 -22q1 -21 3 -45q3 -12 10 -21q14 -18 35 -27t47 -12t53 -3t49 2t38 2q0 -4 -3 -9t-7 -9t-7 -8t-6 -5q-7 -2 -24 -5t-35 -7t-35 -5t-21 -2q-32 -6 -55 1t-39 24q-4 4 -8 9q-10 -9 -27 -15
q-18 -6 -40 -10t-46 -7t-44 -3t-35 -1q-18 0 -36 6t-34 17t-25 28t-10 37zM149 156q-50 -14 -70 -33t-18 -38t24 -32t51 -19t65 4t67 38q-12 29 -24 44t-26 24t-31 10t-38 2zM425 406q-9 0 -23 -9t-27 -24t-21 -31t-6 -29q26 -3 54 1t51 12t38 20t15 24t-19 21t-62 15z" />
    <glyph glyph-name="ccedilla" unicode="&#xe7;" horiz-adv-x="375" 
d="M107 -158q12 0 22 -5t21 -12t21 -12t23 -5q14 -2 31 5t30 20t20 27t-2 25t-36 14t-80 -3q-9 0 -19 6t-17 16t-12 22t-5 22q-5 30 3 48l2 3q-27 15 -46 36q-21 24 -32 55t-12 67q0 37 12 82t35 83t57 65t79 26q23 3 37 -4t21 -24t10 -36t3 -42t1 -40t1 -31h-25q-1 6 -3 28
t-9 47t-16 43t-30 19q-28 0 -52 -22t-43 -53t-29 -64t-11 -55q1 -25 7 -54t19 -54t36 -39t54 -9q24 0 46 10t43 21t42 21t46 10q0 -26 -19 -45t-46 -32t-58 -18t-52 -6q-18 0 -34 3q-1 -17 -10 -45q0 -15 12 -18t31 -3t41 2t40 -3t31 -22t13 -52q0 -22 -10 -38t-26 -27
t-35 -15t-39 -1q-8 0 -22 4t-27 12t-23 20t-10 27z" />
    <glyph glyph-name="egrave" unicode="&#xe8;" horiz-adv-x="337" 
d="M26 235q0 30 13 66t35 68t51 53t60 22q17 0 33 -7t32 -18t28 -26t20 -31t7 -31t-8 -26l-211 -39q-4 -1 -7 -9t-5 -22t-3 -28t-3 -30t-1 -26t0 -18q0 -28 13 -45t35 -27t47 -12t53 -3t49 2t38 2q0 -4 -3 -9t-7 -9l-8 -8l-5 -5q-8 -2 -24 -5t-35 -7t-35 -5t-22 -2
q-31 -6 -54 1t-39 24t-26 41t-15 53t-5 58t2 58zM171 406q-9 0 -23 -9t-27 -24t-21 -31t-6 -29q26 -3 54 1t51 12t38 20t15 24t-19 21t-62 15zM141 654q18 -18 27 -32t17 -29t15 -32t23 -41q0 -7 -3 -9t-8 -4t-12 -3t-15 -6q-13 22 -20 35t-13 24t-15 24t-24 37z" />
    <glyph glyph-name="eacute" unicode="&#xe9;" horiz-adv-x="337" 
d="M26 235q0 30 13 66t35 68t51 53t60 22q17 0 33 -7t32 -18t28 -26t20 -31t7 -31t-8 -26l-211 -39q-4 -1 -7 -9t-5 -22t-3 -28t-3 -30t-1 -26t0 -18q0 -28 13 -45t35 -27t47 -12t53 -3t49 2t38 2q0 -4 -3 -9t-7 -9l-8 -8l-5 -5q-8 -2 -24 -5t-35 -7t-35 -5t-22 -2
q-31 -6 -54 1t-39 24t-26 41t-15 53t-5 58t2 58zM171 406q-9 0 -23 -9t-27 -24t-21 -31t-6 -29q26 -3 54 1t51 12t38 20t15 24t-19 21t-62 15zM228 619q-13 -18 -26 -31t-25 -27t-25 -28t-26 -31l-29 15q35 45 54 73t28 42t13 16t5 -1t9 -12t22 -16z" />
    <glyph glyph-name="ecircumflex" unicode="&#xea;" horiz-adv-x="337" 
d="M26 235q0 30 13 66t35 68t51 53t60 22q17 0 33 -7t32 -18t28 -26t20 -31t7 -31t-8 -26l-211 -39q-4 -1 -7 -9t-5 -22t-3 -28t-3 -30t-1 -26t0 -18q0 -28 13 -45t35 -27t47 -12t53 -3t49 2t38 2q0 -4 -3 -9t-7 -9l-8 -8l-5 -5q-8 -2 -24 -5t-35 -7t-35 -5t-22 -2
q-31 -6 -54 1t-39 24t-26 41t-15 53t-5 58t2 58zM171 406q-9 0 -23 -9t-27 -24t-21 -31t-6 -29q26 -3 54 1t51 12t38 20t15 24t-19 21t-62 15zM180 846q-13 -17 -26 -31t-25 -27t-24 -28t-27 -31l-29 15l134 182q18 -18 31 -39t26 -44t24 -47t27 -48q0 -7 -3 -9t-8 -4
t-12 -3t-15 -6q-13 22 -20 35t-14 24t-14 25t-25 36z" />
    <glyph glyph-name="edieresis" unicode="&#xeb;" horiz-adv-x="337" 
d="M26 235q0 30 13 66t35 68t51 53t60 22q17 0 33 -7t32 -18t28 -26t20 -31t7 -31t-8 -26l-211 -39q-4 -1 -7 -9t-5 -22t-3 -28t-3 -30t-1 -26t0 -18q0 -28 13 -45t35 -27t47 -12t53 -3t49 2t38 2q0 -4 -3 -9t-7 -9l-8 -8l-5 -5q-8 -2 -24 -5t-35 -7t-35 -5t-22 -2
q-31 -6 -54 1t-39 24t-26 41t-15 53t-5 58t2 58zM171 406q-9 0 -23 -9t-27 -24t-21 -31t-6 -29q26 -3 54 1t51 12t38 20t15 24t-19 21t-62 15zM46 544q-3 15 1 23t12 12t18 5t18 1t17 -1t18 -5t12 -12t0 -23q-3 -14 -17 -27t-30 -13q-8 0 -16 3t-14 10t-11 13t-8 14z
M194 544q-4 15 0 23t13 12t18 5t18 1q7 0 17 -1t18 -5t12 -12t0 -23q-1 -7 -6 -14t-11 -13t-15 -9t-15 -4q-17 0 -31 13t-18 27z" />
    <glyph glyph-name="igrave" unicode="&#xec;" horiz-adv-x="145" 
d="M67 388q12 0 20 1t15 -10q3 -45 7 -91t8 -94t5 -94t1 -93q0 -6 -3 -7t-8 -2t-13 1t-17 -1zM303 654q18 -18 27 -32t17 -29t15 -32t23 -41q0 -7 -3 -9t-8 -4t-12 -3t-15 -6q-13 22 -20 35t-13 24t-15 24t-24 37z" />
    <glyph glyph-name="iacute" unicode="&#xed;" horiz-adv-x="145" 
d="M67 388q12 0 20 1t15 -10q3 -45 7 -91t8 -94t5 -94t1 -93q0 -6 -3 -7t-8 -2t-13 1t-17 -1zM390 619q-13 -18 -26 -31t-25 -27t-25 -28t-26 -31l-29 15q35 45 54 73t28 42t13 16t5 -1t9 -12t22 -16z" />
    <glyph glyph-name="icircumflex" unicode="&#xee;" horiz-adv-x="145" 
d="M67 388q12 0 20 1t15 -10q3 -45 7 -91t8 -94t5 -94t1 -93q0 -6 -3 -7t-8 -2t-13 1t-17 -1zM341 676q-13 -17 -26 -31t-25 -27t-24 -28t-27 -31l-29 15l134 182q18 -18 31 -39t26 -44t24 -47t27 -48q0 -7 -3 -9t-8 -4t-12 -3t-15 -6q-13 22 -20 35t-14 24t-14 25t-25 36z
" />
    <glyph glyph-name="idieresis" unicode="&#xef;" horiz-adv-x="145" 
d="M67 388q12 0 20 1t15 -10q3 -45 7 -91t8 -94t5 -94t1 -93q0 -6 -3 -7t-8 -2t-13 1t-17 -1zM208 544q-3 15 1 23t12 12t18 5t18 1t17 -1t18 -5t12 -12t0 -23q-3 -14 -17 -27t-30 -13q-8 0 -16 3t-14 10t-11 13t-8 14zM356 544q-4 15 0 23t13 12t18 5t18 1q7 0 17 -1t18 -5
t12 -12t0 -23q-1 -7 -6 -14t-11 -13t-15 -9t-15 -4q-17 0 -31 13t-18 27z" />
    <glyph glyph-name="eth" unicode="&#xf0;" horiz-adv-x="331" 
d="M335 388q-10 -6 -18 -11l-16 -10t-17 -9t-24 -9q22 -28 35 -64t18 -74t1 -75t-19 -68t-39 -52t-57 -29q-36 -3 -67 3t-57 24t-40 51t-16 80q0 30 9 49t25 31t34 15t37 4q30 4 51 -4t38 -28t28 -47t20 -64q8 27 6 55t-12 57t-21 60t-23 64q-12 2 -25 1t-26 -4t-23 -5
t-18 -1q-8 7 -12 18t-4 27q19 6 39 9t50 6q-13 32 -27 62t-29 59l42 29q15 -27 30 -64t42 -76q9 2 21 9t22 13t18 11t9 -1zM115 205q-10 0 -21 -1t-22 -8t-16 -18t-7 -33q0 -22 10 -38t26 -29t37 -21t39 -13t38 -8t28 -2q0 32 -7 62t-22 55t-35 39t-48 15z" />
    <glyph glyph-name="ntilde" unicode="&#xf1;" horiz-adv-x="405" 
d="M34 5q-2 16 -3 46t-3 69t-3 81t-2 80t-2 68t-5 47v5t-1 9t-1 8v6q15 12 25 8t18 -17t10 -34t4 -40t2 -36v-24q2 17 6 40t12 47t19 47t29 42t38 28t50 8q44 -2 72 -24t45 -59t24 -85t10 -102t2 -109t-1 -107q-9 -2 -18 -6t-15 -5t-8 9t1 34q1 18 3 55t3 84t-6 95t-18 89
t-39 66t-65 26q-41 -17 -68 -64t-44 -110t-24 -136t-9 -144q-2 1 -7 1h-12t-12 2t-7 2zM166 626q-11 8 -17 3t-12 -17t-9 -25t-8 -22t-9 -7t-11 20q0 47 15 66t49 19q19 -9 31 -21l23 -23t19 -17t19 -2t23 20t31 52q6 0 13 -5t8 -15q-16 -41 -31 -61t-30 -26t-28 0t-27 17
t-25 23t-24 21z" />
    <glyph glyph-name="ograve" unicode="&#xf2;" horiz-adv-x="371" 
d="M24 183q0 23 4 53t13 62t22 61t33 53t44 38t56 15q32 0 59 -22t47 -57t30 -78t8 -84q0 -60 -23 -107t-58 -76t-76 -39t-76 5t-59 59t-24 117zM61 179q3 -61 21 -94t43 -43t56 -1t56 35t44 64t21 87q2 36 -5 70t-21 60t-33 42t-45 16q-24 0 -43 -12t-34 -32t-27 -47
t-18 -52t-11 -50t-4 -43zM158 654q18 -18 27 -32t17 -29t15 -32t23 -41q0 -7 -3 -9t-8 -4t-12 -3t-15 -6q-13 22 -20 35t-13 24t-15 24t-24 37z" />
    <glyph glyph-name="oacute" unicode="&#xf3;" horiz-adv-x="371" 
d="M24 183q0 23 4 53t13 62t22 61t33 53t44 38t56 15q32 0 59 -22t47 -57t30 -78t8 -84q0 -60 -23 -107t-58 -76t-76 -39t-76 5t-59 59t-24 117zM61 179q3 -61 21 -94t43 -43t56 -1t56 35t44 64t21 87q2 36 -5 70t-21 60t-33 42t-45 16q-24 0 -43 -12t-34 -32t-27 -47
t-18 -52t-11 -50t-4 -43zM246 619q-13 -18 -26 -31t-25 -27t-25 -28t-26 -31l-29 15q35 45 54 73t28 42t13 16t5 -1t9 -12t22 -16z" />
    <glyph glyph-name="ocircumflex" unicode="&#xf4;" horiz-adv-x="371" 
d="M24 183q0 23 4 53t13 62t22 61t33 53t44 38t56 15q32 0 59 -22t47 -57t30 -78t8 -84q0 -60 -23 -107t-58 -76t-76 -39t-76 5t-59 59t-24 117zM61 179q3 -61 21 -94t43 -43t56 -1t56 35t44 64t21 87q2 36 -5 70t-21 60t-33 42t-45 16q-24 0 -43 -12t-34 -32t-27 -47
t-18 -52t-11 -50t-4 -43zM195 676q-13 -17 -26 -31t-25 -27t-24 -28t-27 -31l-29 15l134 182q18 -18 31 -39t26 -44t24 -47t27 -48q0 -7 -3 -9t-8 -4t-12 -3t-15 -6q-13 22 -20 35t-14 24t-14 25t-25 36z" />
    <glyph glyph-name="otilde" unicode="&#xf5;" horiz-adv-x="371" 
d="M24 183q0 23 4 53t13 62t22 61t33 53t44 38t56 15q32 0 59 -22t47 -57t30 -78t8 -84q0 -60 -23 -107t-58 -76t-76 -39t-76 5t-59 59t-24 117zM61 179q3 -61 21 -94t43 -43t56 -1t56 35t44 64t21 87q2 36 -5 70t-21 60t-33 42t-45 16q-24 0 -43 -12t-34 -32t-27 -47
t-18 -52t-11 -50t-4 -43zM136 550q-11 8 -17 3t-12 -17t-9 -25t-8 -22t-9 -7t-11 20q0 47 15 66t49 19q19 -9 31 -21l23 -23t19 -17t19 -2t23 20t31 52q6 0 13 -5t8 -15q-16 -41 -31 -61t-30 -26t-28 0t-27 17t-25 23t-24 21z" />
    <glyph glyph-name="odieresis" unicode="&#xf6;" horiz-adv-x="371" 
d="M24 183q0 23 4 53t13 62t22 61t33 53t44 38t56 15q32 0 59 -22t47 -57t30 -78t8 -84q0 -60 -23 -107t-58 -76t-76 -39t-76 5t-59 59t-24 117zM61 179q3 -61 21 -94t43 -43t56 -1t56 35t44 64t21 87q2 36 -5 70t-21 60t-33 42t-45 16q-24 0 -43 -12t-34 -32t-27 -47
t-18 -52t-11 -50t-4 -43zM63 544q-3 15 1 23t12 12t18 5t18 1t17 -1t18 -5t12 -12t0 -23q-3 -14 -17 -27t-30 -13q-8 0 -16 3t-14 10t-11 13t-8 14zM211 544q-4 15 0 23t13 12t18 5t18 1q7 0 17 -1t18 -5t12 -12t0 -23q-1 -7 -6 -14t-11 -13t-15 -9t-15 -4q-17 0 -31 13
t-18 27z" />
    <glyph glyph-name="divide" unicode="&#xf7;" horiz-adv-x="284" 
d="M135 346q0 15 7 27t24 12t24 -12t7 -28q0 -17 -7 -27t-34 -11q-8 0 -12 4t-6 11t-2 13t-1 11zM97 586q0 9 4 15t13 8t24 -1t37 -13q-10 -15 -20 -27t-27 -12q-13 0 -22 9t-9 21zM34 230q0 1 9 2t28 2t51 4t76 6q4 0 13 1t18 1t18 2t14 1q0 -14 -5 -24t-19 -18
q-24 -2 -43 -4t-39 -4t-39 -3t-44 -4h-9t-12 -1q-13 0 -22 2t-15 18z" />
    <glyph glyph-name="oslash" unicode="&#xf8;" horiz-adv-x="371" 
d="M232 497q2 6 5 13t7 10t11 -1t16 -22l-16 -54v-1q28 -21 47 -56t30 -78t8 -84q0 -60 -23 -107t-58 -76t-77 -39q-30 -7 -58 -1l-15 -52l-30 30l11 37q-25 18 -43 50q-23 43 -23 117q0 23 4 53t13 62t22 61t33 53t44 38t56 15q13 0 26 -4zM181 41q30 10 56 35t44 64t21 87
q2 36 -5 70t-21 60t-34 43l-107 -362q22 -5 46 3zM61 179q3 -61 21 -94q9 -17 20 -27l106 357h-10q-24 0 -43 -12t-34 -32t-27 -47t-18 -52t-11 -50t-4 -43z" />
    <glyph glyph-name="ugrave" unicode="&#xf9;" horiz-adv-x="458" 
d="M19 388q0 5 6 10t16 8t19 4t13 -3q6 -124 23 -197t40 -108t49 -34t51 21t46 62t35 84t17 90t-8 80l60 7q1 -15 5 -49t10 -78t13 -91t12 -87t9 -69t4 -36h-43l-47 173q-14 -35 -34 -67t-43 -56t-50 -37t-51 -12t-50 24t-44 66t-36 118t-22 177zM202 654q18 -18 27 -32
t17 -29t15 -32t23 -41q0 -7 -3 -9t-8 -4t-12 -3t-15 -6q-13 22 -20 35t-13 24t-15 24t-24 37z" />
    <glyph glyph-name="uacute" unicode="&#xfa;" horiz-adv-x="458" 
d="M19 388q0 5 6 10t16 8t19 4t13 -3q6 -124 23 -197t40 -108t49 -34t51 21t46 62t35 84t17 90t-8 80l60 7q1 -15 5 -49t10 -78t13 -91t12 -87t9 -69t4 -36h-43l-47 173q-14 -35 -34 -67t-43 -56t-50 -37t-51 -12t-50 24t-44 66t-36 118t-22 177zM289 619q-13 -18 -26 -31
t-25 -27t-25 -28t-26 -31l-29 15q35 45 54 73t28 42t13 16t5 -1t9 -12t22 -16z" />
    <glyph glyph-name="ucircumflex" unicode="&#xfb;" horiz-adv-x="458" 
d="M19 388q0 5 6 10t16 8t19 4t13 -3q6 -124 23 -197t40 -108t49 -34t51 21t46 62t35 84t17 90t-8 80l60 7q1 -15 5 -49t10 -78t13 -91t12 -87t9 -69t4 -36h-43l-47 173q-14 -35 -34 -67t-43 -56t-50 -37t-51 -12t-50 24t-44 66t-36 118t-22 177zM239 676q-13 -17 -26 -31
t-25 -27t-24 -28t-27 -31l-29 15l134 182q18 -18 31 -39t26 -44t24 -47t27 -48q0 -7 -3 -9t-8 -4t-12 -3t-15 -6q-13 22 -20 35t-14 24t-14 25t-25 36z" />
    <glyph glyph-name="udieresis" unicode="&#xfc;" horiz-adv-x="458" 
d="M19 388q0 5 6 10t16 8t19 4t13 -3q6 -124 23 -197t40 -108t49 -34t51 21t46 62t35 84t17 90t-8 80l60 7q1 -15 5 -49t10 -78t13 -91t12 -87t9 -69t4 -36h-43l-47 173q-14 -35 -34 -67t-43 -56t-50 -37t-51 -12t-50 24t-44 66t-36 118t-22 177zM107 544q-3 15 1 23t12 12
t18 5t18 1t17 -1t18 -5t12 -12t0 -23q-3 -14 -17 -27t-30 -13q-8 0 -16 3t-14 10t-11 13t-8 14zM255 544q-4 15 0 23t13 12t18 5t18 1q7 0 17 -1t18 -5t12 -12t0 -23q-1 -7 -6 -14t-11 -13t-15 -9t-15 -4q-17 0 -31 13t-18 27z" />
    <glyph glyph-name="yacute" unicode="&#xfd;" horiz-adv-x="384" 
d="M214 -410q0 50 9 103l18 106t16 106t2 104l-249 422q22 20 35 22t15 1q7 -10 23 -37t38 -63t46 -76t45 -76t37 -64t22 -39l46 371l50 -25l-108 -858zM252 619q-13 -18 -26 -31t-25 -27t-25 -28t-26 -31l-29 15q35 45 54 73t28 42t13 16t5 -1t9 -12t22 -16z" />
    <glyph glyph-name="thorn" unicode="&#xfe;" horiz-adv-x="403" 
d="M26 595q0 5 8 9t17 5t17 1t8 -6v-87v-56t-1 -31t0 -13t2 -2t5 3q27 13 60 15t67 -6t66 -26t57 -42t41 -56t21 -68q0 -52 -28 -95t-74 -74t-98 -46t-100 -13l-6 -114l-39 4zM180 377q-20 -1 -38 0t-30 1t-19 -11t-2 -30q1 -10 1 -32v-49t-1 -58t0 -58t-1 -50t2 -32
q13 2 35 2t48 5t55 12t53 26t42 44t25 70q0 39 -13 69t-36 50t-54 30t-67 11z" />
    <glyph glyph-name="ydieresis" unicode="&#xff;" horiz-adv-x="384" 
d="M214 -410q0 50 9 103l18 106t16 106t2 104l-249 422q22 20 35 22t15 1q7 -10 23 -37t38 -63t46 -76t45 -76t37 -64t22 -39l46 371l50 -25l-108 -858zM69 544q-3 15 1 23t12 12t18 5t18 1t17 -1t18 -5t12 -12t0 -23q-3 -14 -17 -27t-30 -13q-8 0 -16 3t-14 10t-11 13
t-8 14zM217 544q-4 15 0 23t13 12t18 5t18 1q7 0 17 -1t18 -5t12 -12t0 -23q-1 -7 -6 -14t-11 -13t-15 -9t-15 -4q-17 0 -31 13t-18 27z" />
    <glyph glyph-name="endash" unicode="&#x2013;" horiz-adv-x="309" 
d="M34 230q0 1 9 2t28 2t51 4t76 6q4 0 16 1t25 1t24 1t17 0q0 -13 -6 -24t-18 -18q-48 -4 -92 -6t-92 -7h-9t-12 -1q-13 0 -22 2t-15 18z" />
    <glyph glyph-name="emdash" unicode="&#x2014;" horiz-adv-x="439" 
d="M10 230q2 2 27 3t63 1t86 2t94 2t86 3t65 5q0 -14 -5 -24t-18 -18q-19 -1 -49 -1t-67 -2t-75 -3t-76 -3t-66 -3t-47 -1h-11t-9 4t-3 12t5 23z" />
    <glyph glyph-name="quoteleft" unicode="&#x2018;" horiz-adv-x="91" 
d="M14 691q0 5 8 12t12 7q25 -16 32 -42t7 -55v-14v-17t-5 -16t-15 -10q-8 3 -15 22t-12 42t-9 44t-3 27z" />
    <glyph glyph-name="quoteright" unicode="&#x2019;" horiz-adv-x="91" 
d="M14 691q0 5 8 12t12 7q25 -16 32 -42t7 -55v-14v-17t-5 -16t-15 -10q-8 3 -15 22t-12 42t-9 44t-3 27z" />
    <glyph glyph-name="quotesinglbase" unicode="&#x201a;" horiz-adv-x="123" 
d="M28 67q0 5 7 12t12 8q26 -17 33 -43t8 -54v-15t-1 -17t-6 -16t-14 -9q-9 2 -15 21t-12 42t-9 44t-3 27z" />
    <glyph glyph-name="quotedblleft" unicode="&#x201c;" horiz-adv-x="216" 
d="M133 633v19t3 20t11 17t20 7q0 -6 1 -20t1 -31t2 -30t1 -20q0 -2 3 -10t7 -18t7 -18t3 -11t-2 -6t-6 -6t-6 -5t-6 -3q-13 17 -21 30t-12 27t-5 26t-1 32zM19 604q0 13 1 32t8 36t18 30t30 13v-170q-27 0 -42 16t-15 43z" />
    <glyph glyph-name="quotedblright" unicode="&#x201d;" horiz-adv-x="250" 
d="M19 634q0 4 7 11t12 7q31 -18 45 -49t14 -66q0 -8 -1 -18t-4 -19t-9 -16t-16 -6h-4t-5 2q-1 7 -3 23t-6 35t-6 34t-5 23q0 2 -3 7t-6 12t-7 12t-3 8zM130 659q28 0 47 -17t30 -43t17 -52t5 -48h-37q-2 24 -12 44t-21 39t-20 37t-9 40z" />
    <glyph glyph-name="quotedblbase" unicode="&#x201e;" horiz-adv-x="216" 
d="M133 63v19t3 20t11 17t20 7q0 -6 1 -20t1 -31t2 -30t1 -20q0 -2 3 -10t7 -18t7 -18t3 -11t-2 -6t-6 -6t-6 -5t-6 -3q-13 17 -21 30t-12 27t-5 27t-1 31zM22 95q2 23 4 41t5 27t7 6t10 -24t12 -62t16 -108q-13 0 -23 14t-17 33t-11 39t-3 34z" />
    <glyph glyph-name="bullet" unicode="&#x2022;" horiz-adv-x="192" 
d="M60 223q-4 15 0 27t11 23t17 15t17 5q7 0 17 -4t18 -12t12 -19t1 -27q-2 -7 -7 -15t-12 -16t-15 -13t-16 -6q-16 0 -27 14t-16 28z" />
    <glyph glyph-name="guilsinglleft" unicode="&#x2039;" horiz-adv-x="360" 
d="M32 163v5t2 4l211 288h23q0 -24 -10 -51t-27 -53t-38 -52t-40 -46t-36 -39t-26 -27v-38q9 -3 25 -10t38 -17t43 -20t44 -20t37 -18t24 -11q3 -2 9 -7t12 -11t11 -12t7 -9q-6 -12 -12 -16t-16 -4q-8 0 -32 11t-55 27t-65 36t-62 38t-48 33t-19 19z" />
    <glyph glyph-name="guilsinglright" unicode="&#x203a;" horiz-adv-x="326" 
d="M259 268l-230 192v58q8 -7 24 -20t38 -31t43 -36t44 -35t37 -30t26 -20q9 -7 22 -12t25 -13t22 -17t9 -25v-5t-2 -6q-7 -9 -20 -28t-30 -44t-36 -52t-36 -52t-30 -44t-20 -29q-9 -11 -17 -17t-22 -7v43z" />
  </font>
</defs>
</svg>
